<svg xmlns="http://www.w3.org/2000/svg" width="899.752" height="670.51" viewBox="0 0 899.752 670.51"><defs><style>.a{fill:#ebebeb;}.b{fill:#f5f5f5;}.c{fill:#e6e6e6;}.d{fill:#e0e0e0;}.e{fill:#f0f0f0;}.f{fill:#fafafa;}.g,.l,.m,.n,.o,.p,.q,.y,.z{fill:#fff;}.h{fill:#006533;}.i,.y,.z{opacity:0.2;}.i,.l,.m,.n,.z{isolation:isolate;}.j{fill:#263238;}.k{fill:#407bff;}.l,.q{opacity:0.4;}.m{opacity:0.1;}.n,.o{opacity:0.3;}.p{opacity:0.6;}.r{fill:#876d55;}.s{fill:#68513e;}.t{fill:none;stroke:#263238;stroke-linecap:round;stroke-linejoin:round;stroke-width:0.725px;}.u{fill:#937c69;}.v{fill:#ebb376;}.w{fill:#02331b;}.x{fill:#017a74;}</style></defs><g transform="translate(0 -54.953)"><g transform="translate(0 54.953)"><rect class="a" width="899.752" height="0.45" transform="translate(0 589.238)"/><rect class="a" width="59.603" height="0.45" transform="translate(749.994 618.204)"/><rect class="a" width="15.643" height="0.45" transform="translate(580.387 623.086)"/><rect class="a" width="34.537" height="0.45" transform="translate(713.657 601.493)"/><rect class="a" width="77.726" height="0.45" transform="translate(94.401 604.518)"/><rect class="a" width="11.396" height="0.45" transform="translate(188.149 604.518)"/><rect class="a" width="168.57" height="0.45" transform="translate(236.583 612.114)"/><path class="a" d="M395.961,563.938H48.479a10.284,10.284,0,0,1-10.272-10.272V65.223a10.283,10.283,0,0,1,10.272-10.27H395.961a10.283,10.283,0,0,1,10.27,10.27V553.666a10.284,10.284,0,0,1-10.27,10.272ZM48.479,55.4a9.831,9.831,0,0,0-9.819,9.819V553.666a9.831,9.831,0,0,0,9.819,9.819H395.961a9.831,9.831,0,0,0,9.819-9.819V65.223a9.831,9.831,0,0,0-9.819-9.819Z" transform="translate(30.546 -54.953)"/><path class="a" d="M612.255,563.938H264.775a10.283,10.283,0,0,1-10.27-10.272V65.223a10.281,10.281,0,0,1,10.27-10.27H612.255a10.283,10.283,0,0,1,10.273,10.27V553.666a10.284,10.284,0,0,1-10.273,10.272ZM264.775,55.4a9.831,9.831,0,0,0-9.819,9.819V553.666a9.831,9.831,0,0,0,9.819,9.819H612.255a9.833,9.833,0,0,0,9.819-9.819V65.223a9.833,9.833,0,0,0-9.819-9.819Z" transform="translate(203.478 -54.953)"/><g transform="translate(140.623 99.417)"><g transform="translate(428.999 309.973)"><path class="b" d="M316.544,282.454H532.738a14.829,14.829,0,0,1-14.174,14.812c-23.237,1.047-58.979,4.724-70.318,17.579-21.129,23.964-19.082,108.14,6.224,127.643,7.936,6.113,31.068,18.25,31.068,18.25h-121.8s21.615-12.383,29.127-18.25c25.163-19.656,25.9-103.782,4.67-127.643-10.892-12.239-44.392-16.191-66.87-17.439a14.962,14.962,0,0,1-14.12-14.951Z" transform="translate(-316.544 -282.454)"/><path class="c" d="M495.54,291.121c-21.959,1.759-48.275,6.1-57.7,16.795a42.527,42.527,0,0,0-7.147,12.381H394.376a43.247,43.247,0,0,0-7.259-12.381c-9.466-10.634-36-15.012-57.542-16.795Z" transform="translate(-306.126 -275.525)"/></g><g transform="translate(478.483 276.474)"><path class="a" d="M386.652,297.443l2.939-33.6H346.983l-2.939,33.6Z" transform="translate(-344.044 -263.839)"/><path class="d" d="M367.721,297.443l2.939-33.6h2.295l-2.939,33.6Z" transform="translate(-325.113 -263.839)"/><path class="e" d="M380.546,292.494l2.341-26.751H348.963l-2.341,26.751Z" transform="translate(-341.982 -262.316)"/><path class="f" d="M376.621,289.313l1.956-22.347H350.229l-1.954,22.347Z" transform="translate(-340.659 -261.338)"/></g><g transform="translate(528.118 255.68)"><path class="c" d="M377.514,306.575h42.81l-4.751-54.291h-42.81Z" transform="translate(-370.717 -252.284)"/><path class="d" d="M378.421,306.575h-2.044l-4.751-54.291h2.044Z" transform="translate(-371.626 -252.284)"/><path class="e" d="M379.24,298.581h34.08l-3.782-43.22h-34.08Z" transform="translate(-368.561 -249.823)"/><path class="f" d="M380.349,293.443h28.469l-3.159-36.107H377.19Z" transform="translate(-367.176 -248.244)"/><path class="a" d="M390.691,270.115h0a4.952,4.952,0,0,1-7,0h0a4.952,4.952,0,0,1,0-7h0a4.955,4.955,0,0,1,7,0h0A4.952,4.952,0,0,1,390.691,270.115Z" transform="translate(-363.141 -244.784)"/><path class="e" d="M386.243,270.207h0a3.627,3.627,0,0,1,5.128,0h0a3.627,3.627,0,0,1-2.564,6.191h0a3.627,3.627,0,0,1-2.564-6.19Z" transform="translate(-360.789 -238.802)"/></g><g transform="translate(0 24.796)"><rect class="d" width="201.882" height="223.278" transform="translate(208.329 223.278) rotate(180)"/><rect class="e" width="209.389" height="223.278" transform="translate(209.389 223.278) rotate(180)"/><rect class="g" width="192.008" height="205.898" transform="translate(200.866 213.019) rotate(180)"/><rect class="d" width="5.552" height="205.898" transform="translate(14.41 213.019) rotate(180)"/><rect class="d" width="5.552" height="187.541" transform="translate(13.816 160.735) rotate(-90)"/><rect class="e" width="194.987" height="9.321" transform="translate(203.843 155.183) rotate(180)"/></g><g transform="translate(377.533 0)"><path class="c" d="M384.581,173.22s1.8-11.877-6.86-19.479-7.9-12.144-5.426-12.733,4.759,7.022,8.566,9.116c0,0,.12-10.85-3.747-14.848s-5.9-14.294-2.217-14.475,4.062,6.116,4.822,10.58,4.86,10.747,4.86,10.747.8-9.706,3.3-13.705-4.163-13.133-1.595-17.129,7.139,3.615,6.758,12.182-6.091,17.7-4.751,26.648c0,0,2.52-6.282,4.781-6.853s4.545-4.726,6.069-6.263,3.425,3.79,0,8.739-12.183,18.19-10.85,28.889Z" transform="translate(-221.828 -110.2)"/><path class="b" d="M376.821,142.218l-2.836,17.8a9.049,9.049,0,0,0,8.937,10.473h3.025a9.049,9.049,0,0,0,8.937-10.473l-2.836-17.8Z" transform="translate(-219.245 -84.6)"/><rect class="c" width="200.471" height="10.3" transform="translate(0 79.32)"/><rect class="e" width="8.832" height="37.967" transform="translate(9.228 41.353)"/><rect class="e" width="8.832" height="37.967" transform="translate(51.933 41.353)"/><rect class="e" width="8.832" height="37.967" transform="matrix(0.985, -0.17, 0.17, 0.985, 100.542, 41.905)"/><rect class="e" width="8.832" height="32.964" transform="translate(20.171 46.356)"/><rect class="e" width="8.832" height="32.964" transform="translate(40.471 46.356)"/><rect class="e" width="8.832" height="32.964" transform="translate(91.71 46.356)"/><rect class="e" width="8.832" height="32.964" transform="translate(63.744 47.14) rotate(-12.527)"/><rect class="e" width="4.415" height="39.853" transform="translate(32.223 39.467)"/><rect class="e" width="4.417" height="39.853" transform="translate(84.756 39.467)"/></g><g transform="translate(377.533 116.362)"><rect class="c" width="200.471" height="10.3" transform="translate(200.471 50.153) rotate(180)"/><rect class="e" width="8.832" height="37.967" transform="translate(191.243 39.853) rotate(180)"/><rect class="e" width="8.832" height="37.967" transform="translate(148.538 39.853) rotate(180)"/><rect class="e" width="8.832" height="37.968" transform="translate(93.48 39.853) rotate(-170.222)"/><rect class="e" width="8.832" height="32.964" transform="translate(180.3 39.853) rotate(180)"/><rect class="e" width="8.832" height="32.964" transform="translate(160.001 39.853) rotate(180)"/><rect class="e" width="8.832" height="32.964" transform="translate(108.761 39.853) rotate(180)"/><rect class="e" width="8.832" height="32.964" transform="translate(129.578 39.853) rotate(-167.474)"/><rect class="e" width="4.415" height="39.853" transform="translate(168.247 39.853) rotate(180)"/><rect class="e" width="4.417" height="39.853" transform="translate(115.715 39.853) rotate(180)"/><rect class="b" width="43.033" height="29.71" transform="translate(62.27 39.512) rotate(180)"/></g></g></g><g transform="translate(100.973 684.709)"><ellipse class="b" cx="348.905" cy="20.377" rx="348.905" ry="20.377" transform="translate(0 0)"/></g><g transform="translate(558.247 523.804)"><path class="h" d="M350.254,451.782s-8.911-19.446,1.267-38.616,13.135-23.685,6.642-27.613-9.469,15.336-9.469,15.336-5.473-13.252-.95-27.12,7.351-36.456,1.18-38.88-1.177,28.18-6.531,38.61a89.813,89.813,0,0,1-5.237-22.751c-.741-11.14.417-28.927-4.458-33.488s-7.993-1.4-3.205,23.175A257.132,257.132,0,0,1,334.243,385s-10.576-32.245-17.675-33.186-7.089,9.5-1.014,18.561,17.794,25.285,19.715,33.634c0,0-11.608-24.268-22.051-16.831s9.089,22.1,17.794,27.4,14.75,38.5,14.75,38.5Z" transform="translate(-310.223 -315.498)"/><path class="i" d="M350.254,451.782s-8.911-19.446,1.267-38.616,13.135-23.685,6.642-27.613-9.469,15.336-9.469,15.336-5.473-13.252-.95-27.12,7.351-36.456,1.18-38.88-1.177,28.18-6.531,38.61a89.813,89.813,0,0,1-5.237-22.751c-.741-11.14.417-28.927-4.458-33.488s-7.993-1.4-3.205,23.175A257.132,257.132,0,0,1,334.243,385s-10.576-32.245-17.675-33.186-7.089,9.5-1.014,18.561,17.794,25.285,19.715,33.634c0,0-11.608-24.268-22.051-16.831s9.089,22.1,17.794,27.4,14.75,38.5,14.75,38.5Z" transform="translate(-310.223 -315.498)"/><path class="h" d="M333.933,456.347s8.677-19.579-1.742-38.594-13.417-23.487-6.968-27.511,9.66,15.192,9.66,15.192,5.312-13.331.633-27.131-7.788-36.345-1.649-38.858,1.517,28.159,7,38.51a90.03,90.03,0,0,0,4.963-22.829c.607-11.149-.762-28.918,4.056-33.551s7.975-1.527,3.484,23.121a257.357,257.357,0,0,0-4.219,44.632s10.189-32.4,17.274-33.447,7.2,9.4,1.234,18.542-17.5,25.551-19.319,33.925c0,0,11.317-24.439,21.855-17.159s-8.823,22.23-17.465,27.654-14.288,38.713-14.288,38.713Z" transform="translate(-300.937 -312.087)"/><g transform="translate(1.329 130.302)"><path class="j" d="M382.654,387.908H310.962l5.8,51.311h60.089Z" transform="translate(-310.962 -387.908)"/></g></g><g transform="translate(225.949 375.571)"><g transform="translate(96.645 0)"><path class="k" d="M235.838,301.367H192.216v-1.68h9.852a2.822,2.822,0,0,0,2.768-2.337l4.406-26.238.863-5.164h14.943l13.365,31.539a2.8,2.8,0,0,1-2.575,3.882Z" transform="translate(-168.916 -206.882)"/><path class="l" d="M235.838,301.367H192.216v-1.68h9.852a2.822,2.822,0,0,0,2.768-2.337l4.406-26.238.863-5.164h14.943l13.365,31.539a2.8,2.8,0,0,1-2.575,3.882Z" transform="translate(-168.916 -206.882)"/><path class="i" d="M231.52,297.392H197.691a2.822,2.822,0,0,0,2.768-2.338l4.406-26.238h15.658l11.908,27.19a.995.995,0,0,1-.911,1.386Z" transform="translate(-164.539 -204.588)"/><path class="k" d="M268.846,301.854h-87.26a1.267,1.267,0,0,1-1.28-1.584l12.4-65.564a2,2,0,0,1,1.877-1.584h87.26a1.267,1.267,0,0,1,1.28,1.584l-12.4,65.564a2,2,0,0,1-1.877,1.584Z" transform="translate(-178.467 -233.122)"/><path class="l" d="M268.846,301.854h-87.26a1.267,1.267,0,0,1-1.28-1.584l12.4-65.564a2,2,0,0,1,1.877-1.584h87.26a1.267,1.267,0,0,1,1.28,1.584l-12.4,65.564a2,2,0,0,1-1.877,1.584Z" transform="translate(-178.467 -233.122)"/><path class="j" d="M267.846,301.854h-87.26a1.267,1.267,0,0,1-1.28-1.584l12.4-65.564a2,2,0,0,1,1.877-1.584h87.26a1.267,1.267,0,0,1,1.28,1.584l-12.4,65.564a2,2,0,0,1-1.877,1.584Z" transform="translate(-179.266 -233.122)"/><path class="h" d="M264.912,296.043H181.493l11.472-60.676h83.418Z" transform="translate(-177.49 -231.331)"/></g><g transform="translate(38.66 85.636)"><path class="k" d="M147.048,289.555v-2.046l33.589-6.786h65.687a4.414,4.414,0,0,1,4.414,4.412h0a4.414,4.414,0,0,1-4.412,4.414Z" transform="translate(-147.045 -280.704)"/><path class="l" d="M250.733,285.146a4.409,4.409,0,0,1-1.278,3.114,4.468,4.468,0,0,1-3.131,1.3H147.046v-2.033l33.6-6.81h65.682a4.409,4.409,0,0,1,4.407,4.434Z" transform="translate(-147.046 -280.712)"/><path class="l" d="M224.349,285.146a4.409,4.409,0,0,1-1.278,3.114,4.468,4.468,0,0,1-3.131,1.3H180.046v-2.033l33.6-6.81h6.3a4.409,4.409,0,0,1,4.407,4.434Z" transform="translate(-120.662 -280.712)"/></g><g transform="translate(0 94.511)"><g transform="translate(166.357 10.495)"><path class="j" d="M218.011,516.31H227l16.153-224.833H231.228Z" transform="translate(-218.005 -291.477)"/><path class="m" d="M218.008,516.149H227l15.362-213.665.792-10.805H231.227l-.646,10.805Z" transform="translate(-218.008 -291.315)"/><path class="i" d="M224.995,301.948h11.781l.792-10.27H225.636Z" transform="translate(-212.422 -291.315)"/></g><g transform="translate(98.928 10.495)"><path class="j" d="M182.008,516.31H191l1.468-224.833H180.54Z" transform="translate(-180.534 -291.477)"/><path class="m" d="M180.537,291.678l.234,36.275L182,516.15H191l1.232-188.2.234-36.275Z" transform="translate(-180.537 -291.315)"/><path class="i" d="M180.537,291.678l.234,36.678h11.458l.234-36.678Z" transform="translate(-180.537 -291.315)"/></g><g transform="translate(4.973 10.495)"><path class="j" d="M128.328,516.31h8.983l16.153-224.833H141.54Z" transform="translate(-128.323 -291.477)"/><path class="m" d="M128.325,516.15h8.987l15.362-213.668.792-10.805H141.537l-.646,10.805Z" transform="translate(-128.325 -291.316)"/><path class="i" d="M135.312,301.948h11.781l.792-10.27H135.958Z" transform="translate(-122.739 -291.315)"/></g><g transform="translate(253.027 10.495)"><path class="j" d="M282.326,516.31h8.987L278.094,291.477H266.171Z" transform="translate(-266.171 -291.477)"/><path class="m" d="M266.176,291.679l.792,10.805,15.362,213.665h8.979l-12.56-213.666-.645-10.805Z" transform="translate(-266.168 -291.316)"/><path class="i" d="M278.1,291.678H266.176l.792,10.27h11.781Z" transform="translate(-266.168 -291.315)"/></g><g transform="translate(8.74 4.865)"><path class="h" d="M3.424,0H262.245a3.424,3.424,0,0,1,3.424,3.424v7.838H0V3.424A3.424,3.424,0,0,1,3.424,0Z" transform="translate(265.669 11.261) rotate(180)"/><path class="l" d="M3.424,0H262.245a3.424,3.424,0,0,1,3.424,3.424v7.838H0V3.424A3.424,3.424,0,0,1,3.424,0Z" transform="translate(265.669 11.261) rotate(180)"/></g><rect class="i" width="265.671" height="5.63" transform="translate(274.409 10.495) rotate(180)"/><path class="h" d="M128.729,291.98H405.543a3.167,3.167,0,0,0,3.167-3.167h0a3.167,3.167,0,0,0-3.167-3.167H128.729a3.167,3.167,0,0,0-3.167,3.167h0A3.167,3.167,0,0,0,128.729,291.98Z" transform="translate(-125.562 -285.645)"/><path class="l" d="M128.729,291.98H405.543a3.167,3.167,0,0,0,3.167-3.167h0a3.167,3.167,0,0,0-3.167-3.167H128.729a3.167,3.167,0,0,0-3.167,3.167h0A3.167,3.167,0,0,0,128.729,291.98Z" transform="translate(-125.562 -285.645)"/></g><g transform="translate(114.074 26.309)"><path class="n" d="M191.635,259.463a2.683,2.683,0,0,1-2.632-3.2l1.121-5.746a3.441,3.441,0,0,1,3.368-2.775h46.8a2.683,2.683,0,0,1,2.632,3.2l-1.123,5.745a3.438,3.438,0,0,1-3.367,2.775Z" transform="translate(-188.954 -247.743)"/><path class="g" d="M238.031,258.16h-46.8a1.78,1.78,0,0,1-1.742-2.122l1.121-5.747a2.534,2.534,0,0,1,2.485-2.046h46.788a1.782,1.782,0,0,1,1.742,2.122l-1.121,5.747a2.534,2.534,0,0,1-2.475,2.046Z" transform="translate(-188.551 -247.344)"/><g transform="translate(5.171 2.162)"><ellipse class="j" cx="2.898" cy="2.309" rx="2.898" ry="2.309" transform="translate(0 4.75) rotate(-55.032)"/><path class="j" d="M201.462,252.208a3.326,3.326,0,0,1-2.993,2.719,2.084,2.084,0,0,1-1.929-2.719,3.326,3.326,0,0,1,2.992-2.719,2.086,2.086,0,0,1,1.93,2.719Z" transform="translate(-188.134 -248.51)"/><path class="j" d="M205.526,252.208a3.326,3.326,0,0,1-2.992,2.719,2.084,2.084,0,0,1-1.931-2.719,3.326,3.326,0,0,1,2.993-2.719,2.084,2.084,0,0,1,1.929,2.719Z" transform="translate(-184.884 -248.51)"/><ellipse class="j" cx="2.898" cy="2.309" rx="2.898" ry="2.309" transform="translate(21.942 4.75) rotate(-55.032)"/><path class="j" d="M213.651,252.208a3.326,3.326,0,0,1-2.992,2.719,2.084,2.084,0,0,1-1.931-2.719,3.326,3.326,0,0,1,2.993-2.719,2.084,2.084,0,0,1,1.929,2.719Z" transform="translate(-178.387 -248.51)"/><ellipse class="j" cx="2.898" cy="2.309" rx="2.898" ry="2.309" transform="translate(36.572 4.75) rotate(-55.032)"/></g><g transform="translate(53.967 0)"><path class="n" d="M220.993,259.463a2.045,2.045,0,0,1-1.595-.729,2.082,2.082,0,0,1-.407-1.742l1.416-7.127a2.692,2.692,0,0,1,2.558-2.122h7.127a2.04,2.04,0,0,1,1.593.729,2.082,2.082,0,0,1,.407,1.742l-1.416,7.126a2.692,2.692,0,0,1-2.558,2.122Z" transform="translate(-218.944 -247.744)"/><path class="j" d="M220.6,258.162h7.126a1.788,1.788,0,0,0,1.676-1.4l1.416-7.126a1.108,1.108,0,0,0-1.118-1.4h-7.126a1.79,1.79,0,0,0-1.676,1.4l-1.416,7.126a1.109,1.109,0,0,0,1.118,1.4Z" transform="translate(-218.547 -247.346)"/><g transform="translate(3.704 2.726)"><g transform="translate(1.639 0)"><path class="k" d="M222.275,255.542a.369.369,0,0,1-.291-.131.475.475,0,0,1,.127-.633l2.851-2.376-1.9-2.376a.475.475,0,0,1,.127-.633.445.445,0,0,1,.633,0l2.163,2.692a.475.475,0,0,1-.128.634l-3.235,2.692a.55.55,0,0,1-.345.131Z" transform="translate(-221.914 -249.26)"/></g><g transform="translate(0 2.683)"><path class="k" d="M226.238,251.65h-4.863a.359.359,0,0,1-.361-.45.578.578,0,0,1,.54-.45h4.863a.359.359,0,0,1,.361.45.578.578,0,0,1-.54.45Z" transform="translate(-221.002 -250.75)"/></g></g></g></g></g><g transform="translate(237.798 244.69)"><rect class="h" width="53.629" height="53.629" rx="4.123" transform="translate(53.629 53.629) rotate(180)"/><path class="h" d="M144.717,189.081l4.194,18.035,4.194-18.035Z" transform="translate(-122.098 -137.455)"/><g transform="translate(10.842 9.358)"><path class="o" d="M153.675,199.137a31.8,31.8,0,0,1-15.5-26.172l.017-.576,15.957-6.8,15.955,6.8.017.576a31.816,31.816,0,0,1-15.5,26.172l-.475.287Z" transform="translate(-138.171 -165.592)"/><path class="p" d="M147.048,166.136l15.075,6.419a30.615,30.615,0,0,1-15.075,25.378Z" transform="translate(-131.075 -165.157)"/><path class="q" d="M153.746,166.136l-15.075,6.419a30.615,30.615,0,0,0,15.075,25.378Z" transform="translate(-137.771 -165.157)"/></g></g><g transform="translate(92.063 332.431)"><g transform="translate(72.086 0)"><path class="r" d="M139,279.2l12.577,1.885a47.837,47.837,0,0,1,8.78-1.885,58.511,58.511,0,0,1,9.73,0s5.7,2.135,5.7,7.592c0,0-13.287,3.56-18.389,1.425l-18.391-1.425Z" transform="translate(-53.019 -153.307)"/><path class="i" d="M139,279.2l12.577,1.885a47.837,47.837,0,0,1,8.78-1.885,58.511,58.511,0,0,1,9.73,0s5.7,2.135,5.7,7.592c0,0-13.287,3.56-18.389,1.425l-18.391-1.425Z" transform="translate(-53.019 -153.307)"/><g transform="translate(64.27)"><g transform="translate(50.028 31.359)"><path class="s" d="M157.628,231.836a32.5,32.5,0,0,0,1.508,7.624,4.216,4.216,0,0,1-4.4-.049Z" transform="translate(-154.736 -222.371)"/><path class="j" d="M160.143,230.995c-.485,1.164-1.346,1.913-1.929,1.672s-.662-1.381-.181-2.545,1.346-1.913,1.927-1.672S160.625,229.823,160.143,230.995Z" transform="translate(-152.35 -225.115)"/><path class="t" d="M163.836,227.771s-3.715-2.255-7.024-.57" transform="translate(-153.076 -226.576)"/></g><path class="r" d="M168.157,256.283a18.468,18.468,0,0,1-1.267,1.438,18.193,18.193,0,0,1-12.072,5.484,16.312,16.312,0,0,1-13.024-5.21,16.487,16.487,0,0,1-3.349-5.576c-3.207-8.634.063-15.447,4.67-27.4a17.542,17.542,0,0,1,29.265-5.969C181.7,228.879,175.429,246.931,168.157,256.283Z" transform="translate(-118.759 -205.664)"/><path class="i" d="M155.491,244.423a17.981,17.981,0,0,1-2.73.355,16.312,16.312,0,0,1-13.024-5.21,19.071,19.071,0,0,1,3.872-3.009A25.259,25.259,0,0,1,155.491,244.423Z" transform="translate(-116.699 -187.237)"/><path class="r" d="M126.935,254.627c1.178,8.433,19.6,11.578,19.6,11.578s9.093,4.141,9.466.532c-3.763-4.355-4.178-8.148-2.881-11.478a16.482,16.482,0,0,1,3.706-5.35,34.434,34.434,0,0,1,2.683-2.477l-5.62-23.076C149.843,233.126,136,253.378,126.935,254.627Z" transform="translate(-126.935 -196.993)"/><path class="j" d="M174.523,216.006s3.935-.489,6.951,6.849c2.545,6.184-3.441,7.522-3.183,14.095s-5.744,10.221-5.744,10.221-5.052,4.353-9.344,1.992c0,0-5.619,2.756-7.1,7.564s-10.169-3.878-18-2.561c0,0-5.3-4.952-4.909-16.974a41.687,41.687,0,0,1,3.772-15.075,20.486,20.486,0,0,1,11.244-11.159C157.163,206.963,172.838,210.005,174.523,216.006Z" transform="translate(-121.945 -209.15)"/><path class="u" d="M149.352,232.213a8.289,8.289,0,0,0,1.536,6.932c1.919,2.083,4.99-.557,6.232-4.217,1.08-3.251,1.449-8.351-1.352-8.924S149.941,228.7,149.352,232.213Z" transform="translate(-109.173 -195.73)"/></g><g transform="translate(12.133 56.629)"><path class="h" d="M192.25,248.588q-3.859,10.744-6.91,20.694c-1.3,4.1-2.483,8.116-3.581,11.985q-1.376,4.886-2.556,9.466c-.378,1.476-.755,2.933-1.109,4.372-1.98,7.936-3.581,15.17-4.841,21.538A285.471,285.471,0,0,0,168.593,347l-70.631-8.835c2.447-12.129,4.355-22.727,7.019-34.155,1.476-6.262,3.15-12.777,5.308-19.921,1.511-5.128,3.275-10.581,5.362-16.5,7.09-20.334,13.62-25.972,13.62-25.972C156.442,237.263,192.25,248.588,192.25,248.588Z" transform="translate(-97.962 -240.619)"/></g><path class="r" d="M163.411,279.93l12.577,1.885a48.049,48.049,0,0,1,8.781-1.885,58.5,58.5,0,0,1,9.728,0s5.7,2.136,5.7,7.6c0,0-13.29,3.56-18.391,1.425l-18.391-1.425Z" transform="translate(-33.502 -152.725)"/><g transform="translate(51.943 329.514)"><path class="v" d="M120.085,422.58l13.144.238,6.55-30.333-13.144-.22Z" transform="translate(-120.085 -392.264)"/><path class="i" d="M125.347,392.264l13.136.237-3.749,17.338-13.019-.873Z" transform="translate(-118.781 -392.264)"/></g><path class="w" d="M170,414.683a412.678,412.678,0,0,1-19.162,56.575l-24-1.834s9.849-38.464,13.415-73.688c2.217-21.744,2.013-39.739-4.352-41.129-4.01-.884-13.384-.85-25.391-.572V309.273c33.7,6.921,67.241,19.976,69.794,30.448C183.872,354.46,177.639,385.659,170,414.683Z" transform="translate(-75.793 -129.101)"/><g transform="translate(48.5 329.524)"><path class="x" d="M118.172,404.195l28.577,1.9,4.2-12.353-31.483-1.473Z" transform="translate(-118.172 -392.27)"/><path class="y" d="M118.172,404.195l28.577,1.9,4.2-12.353-31.483-1.473Z" transform="translate(-118.172 -392.27)"/></g><g transform="translate(68.869 353.888)"><path class="x" d="M129.491,411.338c0,.014.272.021.276.035.016.049.293.09.331.123s.024.07.055.092a.183.183,0,0,0,.111-.01,16.078,16.078,0,0,0,3.424.676,3.5,3.5,0,0,0,2.5-.491,1.636,1.636,0,0,0,.475-1.682,1.165,1.165,0,0,0-.66-.912,5.384,5.384,0,0,0-3.642.67,4.681,4.681,0,0,0,1.3-3.009,1.249,1.249,0,0,0-1.118-.995,1.93,1.93,0,0,0-1.462.344c-1.37,1.183-1.584,4.9-1.584,5.126v.027Zm1.413-.762-.269.158a6.651,6.651,0,0,1,1.109-4.019.884.884,0,0,1,.67-.238l.149.019c.434.079.534.3.551.475a6.2,6.2,0,0,1-2.209,3.6Zm.188.651c1.584-.873,3.832-1.835,4.672-1.447a.561.561,0,0,1,.317.45,1.126,1.126,0,0,1-.287,1.074c-.657.564-2.385.529-4.705-.079Z" transform="translate(-129.491 -405.809)"/></g><path class="j" d="M135.959,408.4l-14.728-.918a.931.931,0,0,0-1.026.828v.014l-1.444,11.616a2.323,2.323,0,0,0,2.147,2.461c5.144.237,7.609.093,14.095.447,3.977.238,11.816,1.083,17.3.553s4.816-5.942,2.445-6.2c-5.62-.633-13.064-4.768-16.581-7.9A3.688,3.688,0,0,0,135.959,408.4Z" transform="translate(-69.204 -50.589)"/><path class="i" d="M170,414.683c-8.965-5.677-19.452-12.353-29.744-18.945,2.217-21.744,2.013-39.739-4.352-41.129-4.01-.884-13.384-.85-25.391-.572V309.273c33.7,6.921,67.241,19.976,69.794,30.448C183.873,354.46,177.64,385.659,170,414.683Z" transform="translate(-75.794 -129.101)"/><g transform="translate(128.838 329.514)"><path class="v" d="M162.815,422.58l13.144.238,6.55-30.333-13.144-.22Z" transform="translate(-162.815 -392.264)"/><path class="i" d="M168.077,392.264l13.137.237-3.749,17.338-13.019-.873Z" transform="translate(-161.511 -392.264)"/></g><path class="w" d="M172.3,319.4l2.116-16.994L105.719,291.1s-22.464,44.51-11.469,66.324c10.086,20.013,117.448,8.091,133.978,11.7,16.7,3.642-9.062,114.816-9.062,114.816l24,1.832s37.085-100.053,29.456-131.523C269.294,340.522,212.7,322.341,172.3,319.4Z" transform="translate(-91.22 -143.63)"/><g transform="translate(125.392 329.524)"><path class="x" d="M160.9,404.195l28.577,1.9,4.2-12.353L162.2,392.27Z" transform="translate(-160.9 -392.27)"/><path class="y" d="M160.9,404.195l28.577,1.9,4.2-12.353L162.2,392.27Z" transform="translate(-160.9 -392.27)"/></g><g transform="translate(143.964 353.888)"><path class="x" d="M171.221,411.338c0,.014.274.021.277.035.014.049.291.09.329.123s.025.07.055.092a.183.183,0,0,0,.111-.01,16.1,16.1,0,0,0,3.424.676,3.5,3.5,0,0,0,2.5-.491,1.628,1.628,0,0,0,.475-1.682,1.167,1.167,0,0,0-.659-.912,5.384,5.384,0,0,0-3.642.67,4.687,4.687,0,0,0,1.294-3.009,1.248,1.248,0,0,0-1.118-.995,1.934,1.934,0,0,0-1.462.344c-1.37,1.183-1.584,4.9-1.584,5.126v.027Zm1.413-.762-.269.158a6.637,6.637,0,0,1,1.109-4.019.884.884,0,0,1,.67-.238l.149.019c.434.079.534.3.55.475a6.2,6.2,0,0,1-2.208,3.6Zm.188.651c1.584-.873,3.834-1.835,4.672-1.447a.553.553,0,0,1,.317.45,1.123,1.123,0,0,1-.287,1.074c-.656.564-2.377.529-4.7-.079Z" transform="translate(-171.221 -405.809)"/></g><path class="j" d="M178.69,408.4l-14.728-.918a.933.933,0,0,0-1.028.828v.014l-1.444,11.616a2.323,2.323,0,0,0,2.147,2.461c5.142.237,7.609.093,14.095.447,3.977.238,11.814,1.083,17.3.553s4.816-5.942,2.445-6.2c-5.62-.633-13.062-4.768-16.581-7.9a3.685,3.685,0,0,0-2.208-.895Z" transform="translate(-35.041 -50.589)"/><g transform="translate(11.98 150.047)"><path d="M97.877,297.691l31.832,4.173,1.029-4.692-31.884-4.639Z" transform="translate(-97.877 -292.533)"/><path d="M117.779,295.126l-.385,4.665,29.415,4.045v-4.61Z" transform="translate(-82.273 -290.461)"/><path d="M134.754,297.546V301.9l4.276.57v-4.206Z" transform="translate(-68.394 -288.525)"/></g><path class="i" d="M149.543,258.768c-1.3,4.1-2.483,8.116-3.581,11.985q-1.376,4.886-2.556,9.466c-2.217-12.056,1.8-26.447,1.8-26.447Z" transform="translate(-50.029 -173.476)"/><path class="r" d="M154.61,245.043c5.746,1.162,7.643,45.768,7.88,50.519s28.189,13.979,28.189,13.979v6.506s-29.95-2.1-36.941-4.955-8.7-44.241-8.7-44.241Z" transform="translate(-48.192 -180.453)"/><path class="h" d="M156.024,245.043c5.27,1.638,7.88,31.062,7.88,31.062l-16.3,6.561L143.562,266.3s-1.158-3.326,1.123-10.346C147.978,245.821,156.024,245.043,156.024,245.043Z" transform="translate(-49.606 -180.453)"/></g><g transform="translate(0 39.413)"><path class="h" d="M12.53,0H145.952a12.53,12.53,0,0,1,12.53,12.53v9.325H0V12.53A12.53,12.53,0,0,1,12.53,0Z" transform="translate(42.661 171.796)"/><path class="j" d="M106.275,296.455h87.26a6.968,6.968,0,0,1,6.8,8.552l-15.6,67.407h-3.6l13.292-59.071a6.978,6.978,0,0,0-6.81-8.507H108.057Z" transform="translate(-7.097 -178.762)"/><path class="j" d="M133.773,339.975V396.93a3.315,3.315,0,0,1-3.311,3.311H116.5a3.3,3.3,0,0,1-3.311-3.311V339.975Z" transform="translate(-1.572 -143.968)"/><g transform="translate(43.019 321.463)"><path class="j" d="M87.169,415.745a6.051,6.051,0,1,0-6.051,6.05,6.051,6.051,0,0,0,6.051-6.05Z" transform="translate(-75.067 -409.692)"/><path class="y" d="M82.8,414.4a3.025,3.025,0,1,0-3.025,3.025A3.025,3.025,0,0,0,82.8,414.4Z" transform="translate(-73.723 -408.347)"/><g transform="translate(145.664 0)"><path class="j" d="M168.116,415.745a6.051,6.051,0,1,0-6.05,6.05,6.051,6.051,0,0,0,6.05-6.05Z" transform="translate(-156.014 -409.692)"/><path class="y" d="M163.747,414.4a3.026,3.026,0,1,0-3.025,3.025,3.026,3.026,0,0,0,3.025-3.025Z" transform="translate(-154.671 -408.348)"/></g></g><path class="j" d="M156.478,427.225v-65.1H146.466v65.1c-38.987,1-62.677,14.628-67.417,17.615a1.9,1.9,0,0,0-.884,1.612v5.41a1.913,1.913,0,0,0,1.913,1.918h0a1.913,1.913,0,0,0,1.663-.966l2.312-4.056a219.243,219.243,0,0,1,62.412-10.335v10.7a2.475,2.475,0,0,0,2.477,2.477h5.068a2.475,2.475,0,0,0,2.477-2.477v-10.7A219.236,219.236,0,0,1,218.9,448.753l2.312,4.056a1.916,1.916,0,0,0,1.663.966h0a1.913,1.913,0,0,0,1.915-1.915v-5.41a1.9,1.9,0,0,0-.884-1.612C219.153,441.851,195.465,428.222,156.478,427.225Z" transform="translate(-29.57 -126.259)"/><rect class="j" width="6.569" height="12.102" transform="translate(118.618 321.465)"/><rect class="i" width="20.586" height="23.663" transform="translate(111.613 196.007)"/><path class="j" d="M239.6,338.258v6.81a3.484,3.484,0,0,1-3.484,3.473H75.939a3.463,3.463,0,0,1-3.473-3.473v-6.81a3.475,3.475,0,0,1,3.473-3.473H236.112a3.484,3.484,0,0,1,3.484,3.473Z" transform="translate(-34.127 -148.117)"/><path class="j" d="M179.105,420.07H85.658S55.966,370.691,55.966,289.1v-29.96a22.306,22.306,0,0,1,22.314-22.3H117.9a22.293,22.293,0,0,1,22.3,21.666C141.352,300.548,147.543,391.585,179.105,420.07Z" transform="translate(-47.319 -226.42)"/><path class="y" d="M158.546,420.07H89.88a7.093,7.093,0,0,1-6.306-3.82c-6.759-13.035-27.6-58.784-27.6-127.148V259.141a22.3,22.3,0,0,1,22.3-22.3H112.5a22.293,22.293,0,0,1,22.3,21.666c1.028,37.555,6.078,114.222,29.652,150.448a7.139,7.139,0,0,1-5.907,11.111Z" transform="translate(-47.317 -226.42)"/><path class="i" d="M200.866,338.258v6.81a3.475,3.475,0,0,1-3.473,3.473H125.612a4.7,4.7,0,0,1-4.7-4.7v-4.363a4.694,4.694,0,0,1,4.7-4.7h71.77a3.484,3.484,0,0,1,3.484,3.473Z" transform="translate(4.608 -148.117)"/><path class="h" d="M72.45,238.829l5.932-7.777s25.369,1.153,25.972,10.425S72.45,238.829,72.45,238.829Z" transform="translate(-34.14 -231.052)"/><g transform="translate(5.861 31.038)"><path class="h" d="M70.2,248.3s1.547,41.2,0,147.571c-.054,3.587-13.428,3.467-14.351,0-3.224-12.1,0-108.817,0-108.817" transform="translate(-54.418 -248.3)"/><path class="h" d="M55.361,330.6l13.659.464v6.821l-13.659-.7Z" transform="translate(-53.663 -182.501)"/><path class="z" d="M70.2,248.3s1.547,41.2,0,147.571c-.054,3.587-13.428,3.467-14.351,0-3.224-12.1,0-108.817,0-108.817" transform="translate(-54.418 -248.3)"/></g><path class="h" d="M51.973,386.233c-.735-19.606-3.422-109.748,7.834-139.63,0,0,10.611-13.461,46.474-13.461S152.943,258.6,152.943,258.6s1.547,41.2,0,147.569c-.052,3.589-13.426,3.468-14.351,0-3.224-12.1,0-108.814,0-108.814l-7.179,87.984a2.162,2.162,0,0,1-2.48,1.959c-11.314-1.742-61.228-8.8-74.372.2a1.637,1.637,0,0,1-2.588-1.265Z" transform="translate(-51.161 -229.381)"/><path class="h" d="M99.894,329.59l13.659.464v6.821l-13.659-.7Z" transform="translate(-12.199 -152.27)"/><path class="h" d="M128.446,321.4l-1.08,7.184s-55.656-12.144-73.691.792L52.6,321.4S66.536,308.559,128.446,321.4Z" transform="translate(-50.009 -163.38)"/><path class="l" d="M51.973,386.233c-.735-19.606-3.422-109.748,7.834-139.63,0,0,10.611-13.461,46.474-13.461S152.943,258.6,152.943,258.6s1.547,41.2,0,147.569c-.052,3.589-13.426,3.468-14.351,0-3.224-12.1,0-108.814,0-108.814l-7.179,87.984a2.162,2.162,0,0,1-2.48,1.959c-11.314-1.742-61.228-8.8-74.372.2a1.637,1.637,0,0,1-2.588-1.265Z" transform="translate(-51.161 -229.381)"/><path class="i" d="M99.869,286.042s.792-27.934,14.351-38.754C114.22,247.288,97.259,254.592,99.869,286.042Z" transform="translate(-12.436 -218.071)"/><path class="i" d="M85.895,234.929s-16.373,8.922-18.985,131.6C66.91,366.535,59.791,242.855,85.895,234.929Z" transform="translate(-39.278 -227.953)"/></g></g></g></svg>