<svg xmlns="http://www.w3.org/2000/svg" width="35.002" height="34.001" viewBox="0 0 35.002 34.001"><defs><style>.a{fill:#1d1d1d;}</style></defs><g transform="translate(-10.343 -32)"><path class="a" d="M15.447,72.207v2.1l-1,1,.829.829L17.914,73.5a.657.657,0,0,1,.93.93l-2.638,2.638a.586.586,0,0,0,0,.829,2.733,2.733,0,0,1,0,3.861l-2.931,2.931.829.829,1.344-1.344v4.447a2.348,2.348,0,0,0,2.345,2.345H31.275V89.794H20.723V88.621H31.275V87.449H17.792a1.174,1.174,0,0,1-1.172-1.172V83l.415-.415a3.9,3.9,0,0,0,.384-5.074l2.254-2.254a1.83,1.83,0,1,0-2.588-2.588l-.465.465V66.345a1.174,1.174,0,0,1,1.172-1.172H42.414a1.174,1.174,0,0,1,1.172,1.172V82.759h1.172V66.345A2.348,2.348,0,0,0,42.414,64H17.792a2.348,2.348,0,0,0-2.345,2.345v4.69H13.689a2.348,2.348,0,0,0-2.345,2.345v5.033l-1,1,.829.829,1.172-1.172a.586.586,0,0,0,.172-.415V73.38a1.174,1.174,0,0,1,1.172-1.172Zm2.345,16.414h1.759v1.172H17.792a1.174,1.174,0,0,1-1.172-1.172v-.315A2.33,2.33,0,0,0,17.792,88.621Z" transform="translate(0 -29.655)"/><path class="a" d="M323.14,276.69a1.749,1.749,0,0,0-.586.1v-.1a13.287,13.287,0,0,0-4.69-2.244v-.687a1.759,1.759,0,0,0-3.517,0v4.914l-.614.307a3.129,3.129,0,0,0-.337,5.4l1.6,1.066a1.174,1.174,0,0,1,.524.978v1.987h1.172v-1.987a2.343,2.343,0,0,0-1.046-1.953l-.975-.652-.625-.415a1.958,1.958,0,0,1,.212-3.38l.09-.045v1.983h1.172v-8.207a.586.586,0,0,1,1.172,0v4.69h1.172V276.1a.586.586,0,1,1,1.172,0v2.931h1.172V276.69a.586.586,0,1,1,1.172,0v2.931h1.172v-1.172a.586.586,0,1,1,1.172,0v2.068a10.571,10.571,0,0,1-1.111,4.7.586.586,0,0,0-.062.262v2.931h1.172V285.62a11.753,11.753,0,0,0,1.172-5.1v-2.068a1.761,1.761,0,0,0-1.759-1.759Z" transform="translate(-279.554 -222.413)"/><path class="a" d="M334.9,148.73a2.172,2.172,0,1,0,2.172,2.172A2.172,2.172,0,0,0,334.9,148.73Zm0,3.171a1,1,0,1,1,1-1A1,1,0,0,1,334.9,151.9Z" transform="translate(-298.763 -108.176)"/><path class="a" d="M295.912,105.43a.586.586,0,0,0,.149-.659l-.49-1.182a.582.582,0,0,0-.572-.361l-1.106.056-.344-.344.056-1.106a.586.586,0,0,0-.361-.572l-1.182-.49a.586.586,0,0,0-.66.149l-.742.822h-.487l-.742-.822a.586.586,0,0,0-.659-.149l-1.182.49a.586.586,0,0,0-.361.572l.056,1.106-.344.344-1.107-.056a.581.581,0,0,0-.572.361l-.49,1.182a.586.586,0,0,0,.149.66l.822.742v.487l-.822.742a.586.586,0,0,0-.149.66l.49,1.182a.583.583,0,0,0,.572.361l1.107-.056.344.344L287.228,111a.586.586,0,0,0,.361.572l1.182.49a.586.586,0,0,0,.66-.149l.742-.822h.487l.742.822a.586.586,0,0,0,.659.149l1.182-.49a.586.586,0,0,0,.361-.572l-.056-1.106.344-.344L295,109.6a.585.585,0,0,0,.572-.361l.49-1.182a.586.586,0,0,0-.149-.66l-.822-.742v-.487Zm-1.8,1.925.708.639-.173.418-.953-.049a.587.587,0,0,0-.444.171l-.713.713a.586.586,0,0,0-.171.444l.049.953-.418.173-.639-.708a.586.586,0,0,0-.435-.193h-1.008a.586.586,0,0,0-.435.193l-.64.708-.418-.173.049-.953a.586.586,0,0,0-.171-.444l-.713-.713a.587.587,0,0,0-.445-.171l-.953.049-.173-.418.708-.639a.586.586,0,0,0,.193-.435v-1.008a.586.586,0,0,0-.193-.435l-.708-.64.173-.418.953.049a.586.586,0,0,0,.444-.171l.713-.713a.586.586,0,0,0,.171-.444l-.049-.953.418-.173.64.708a.586.586,0,0,0,.435.193h1.008a.586.586,0,0,0,.435-.193l.639-.708.418.173-.049.953a.586.586,0,0,0,.171.444l.713.713a.586.586,0,0,0,.444.171l.953-.049.173.418-.708.64a.586.586,0,0,0-.193.435v1.008a.586.586,0,0,0,.193.435Z" transform="translate(-254.278 -63.69)"/><path class="a" d="M136,276.69v1.172h12.9V276.69h-1.172v-1.759h-1.172v1.759H145.38v-2.931h-1.172v2.931h-1.172V272h-1.172v4.69H140.69v-2.931h-1.172v2.931h-1.172v-1.759h-1.172v1.759Z" transform="translate(-116.449 -222.413)"/><path class="a" d="M144,112h1.172v1.172H144Z" transform="translate(-123.863 -74.138)"/><path class="a" d="M176,112h5.862v1.172H176Z" transform="translate(-153.518 -74.138)"/><path class="a" d="M128,144h9.38v1.172H128Z" transform="translate(-109.035 -103.793)"/><path class="a" d="M160,176h7.035v1.172H160Z" transform="translate(-138.69 -133.448)"/><path class="a" d="M160,208h5.862v1.172H160Z" transform="translate(-138.69 -163.103)"/><path class="a" d="M152,32h15.242v1.172H152Z" transform="translate(-131.277)"/><path class="a" d="M376,32h1.172v1.172H376Z" transform="translate(-338.862)"/></g></svg>