<svg xmlns="http://www.w3.org/2000/svg" width="35" height="35" viewBox="0 0 35 35"><defs><style>.a{fill:#058b46;}.b{fill:#fff;}</style></defs><g transform="translate(-297.094 -208.687)"><rect class="a" width="35" height="35" rx="5" transform="translate(297.094 208.687)"/><g transform="translate(-132.456 335.688)"><path class="b" d="M444.893-107.556v-.43a.4.4,0,0,1,.279-.376h-.005l1.026-.351a1.455,1.455,0,0,0,1.705,0l.7.241h.847a.8.8,0,0,0-.386-.281l-.87-.3a1.22,1.22,0,0,0,.166-.615v-1.676a.964.964,0,0,0-.962-.962H446.7a.964.964,0,0,0-.962.962v1.676a1.214,1.214,0,0,0,.166.614l-.87.3a.811.811,0,0,0-.548.751,3.179,3.179,0,0,1-.656-1.947,3.22,3.22,0,0,1,3.216-3.216h0a3.227,3.227,0,0,1,3.184,2.763.207.207,0,0,0,.234.176.208.208,0,0,0,.175-.234,3.671,3.671,0,0,0-3.593-3.118,3.633,3.633,0,0,0-3.629,3.629,3.629,3.629,0,0,0,3.627,3.631,3.542,3.542,0,0,0,.373-.019.211.211,0,0,0,.188-.211v0a.214.214,0,0,0-.237-.211A3.25,3.25,0,0,1,444.893-107.556Zm3.048-2.109a.9.9,0,0,1-1.005.781.9.9,0,0,1-.781-.781h0v-.782h.235a.915.915,0,0,0,.706-.374.624.624,0,0,0,.529.374h.32Zm-1.79-1.676a.551.551,0,0,1,.549-.549h.693a.551.551,0,0,1,.549.549v.481h-.32a.131.131,0,0,1-.112-.066l-.2-.342a.206.206,0,0,0-.281-.077.2.2,0,0,0-.048.038l-.3.32a.406.406,0,0,1-.3.127h-.235Z"/><path class="b" d="M450.653-109.5a.207.207,0,0,0-.2-.218.208.208,0,0,0-.214.168,3.168,3.168,0,0,1-.207.8.207.207,0,0,0,.193.285h0a.21.21,0,0,0,.194-.134A3.619,3.619,0,0,0,450.653-109.5Z"/><path class="b" d="M453.945-111.069l0,0-1.431-.369a5.618,5.618,0,0,0-.549-1.324l.751-1.273a.206.206,0,0,0-.032-.251l-1.3-1.3a.206.206,0,0,0-.251-.032l-1.272.75a5.658,5.658,0,0,0-1.324-.548l-.369-1.431a.207.207,0,0,0-.2-.155h-1.838a.207.207,0,0,0-.2.155l-.369,1.431a5.658,5.658,0,0,0-1.324.548l-1.273-.75a.206.206,0,0,0-.251.032l-1.3,1.3a.206.206,0,0,0-.032.251l.751,1.273a5.615,5.615,0,0,0-.548,1.324l-1.431.369a.207.207,0,0,0-.155.2v1.838a.207.207,0,0,0,.155.2l1.43.369a5.618,5.618,0,0,0,.549,1.324l-.751,1.273a.206.206,0,0,0,.032.251l.351.351a.206.206,0,0,0,.292-.021.208.208,0,0,0,0-.271l-.238-.238.731-1.239a.207.207,0,0,0,0-.212,5.218,5.218,0,0,1-.6-1.438.206.206,0,0,0-.149-.15l-1.394-.359v-1.518l1.394-.359a.206.206,0,0,0,.149-.151,5.211,5.211,0,0,1,.6-1.437.207.207,0,0,0,0-.212l-.731-1.239,1.073-1.073,1.24.731a.207.207,0,0,0,.212,0,5.21,5.21,0,0,1,1.437-.6.206.206,0,0,0,.15-.149l.36-1.393h1.517l.36,1.393a.206.206,0,0,0,.15.149,5.211,5.211,0,0,1,1.437.6.207.207,0,0,0,.212,0l1.24-.731,1.073,1.073-.731,1.239a.207.207,0,0,0,0,.212,5.21,5.21,0,0,1,.6,1.437.206.206,0,0,0,.149.151l1.394.359v1.518l-1.394.359a.206.206,0,0,0-.149.151v0a.164.164,0,0,0,.158.205h.226a.184.184,0,0,0,.041,0l1.371-.354a.207.207,0,0,0,.155-.2v-1.838A.207.207,0,0,0,453.945-111.069Z"/><path class="b" d="M447.809-103.306h-1.517l-.36-1.394a.206.206,0,0,0-.15-.149,5.211,5.211,0,0,1-1.437-.6.207.207,0,0,0-.212,0l-1.24.731-.2-.2a.206.206,0,0,0-.292.021.206.206,0,0,0,0,.271l.312.312a.206.206,0,0,0,.251.032l1.273-.75a5.658,5.658,0,0,0,1.324.548l.369,1.431a.207.207,0,0,0,.2.155h1.838a.207.207,0,0,0,.2-.155l.052-.2a.111.111,0,0,0-.108-.139h-.193a.11.11,0,0,0-.108.084Z"/><path class="b" d="M451.545-109.949a4.547,4.547,0,0,0-4.023-4.469.207.207,0,0,0-.24.226.205.205,0,0,0,.1.157.209.209,0,0,0,.1.028,4.082,4.082,0,0,1,3.63,4.487,4.079,4.079,0,0,1-.161.782.207.207,0,0,0,.2.266h0a.208.208,0,0,0,.2-.149A4.457,4.457,0,0,0,451.545-109.949Z"/><path class="b" d="M446.266-105.943a4.1,4.1,0,0,1-3.3-4.1,4.082,4.082,0,0,1,3.652-3.965.207.207,0,0,0,.155-.289.213.213,0,0,0-.2-.122h0a4.494,4.494,0,0,0-4,4.941,4.494,4.494,0,0,0,4.941,4l.087-.011v-.008a.374.374,0,0,0-.393-.372A4.113,4.113,0,0,1,446.266-105.943Z"/><path class="b" d="M450.248-105.744l1.984.041a.2.2,0,0,0,.205-.194.2.2,0,0,0-.194-.206h0l-1.993-.039,0-1.992a.2.2,0,0,0-.218-.18.2.2,0,0,0-.18.18l0,1.984-1.983-.043a.2.2,0,0,0-.225.172.2.2,0,0,0,.172.225.226.226,0,0,0,.045,0l1.991.042,0,1.991a.2.2,0,0,0,.218.18.2.2,0,0,0,.18-.179Z"/></g></g></svg>