<svg xmlns="http://www.w3.org/2000/svg" width="35" height="35" viewBox="0 0 35 35"><defs><style>.a{fill:#058b46;}.b{fill:#fff;}</style></defs><g transform="translate(-297.094 -208.687)"><rect class="a" width="35" height="35" rx="5" transform="translate(297.094 208.687)"/><g transform="translate(-133.894 352.701)"><path class="b" d="M448.3-120.029a.27.27,0,0,0,0,.381.27.27,0,0,0,.382,0,.272.272,0,0,0,.078-.191.274.274,0,0,0-.079-.191A.27.27,0,0,0,448.3-120.029Z"/><path class="b" d="M452.434-122.9l.561-1.344.86.206a1.337,1.337,0,0,1,1,1.039.27.27,0,0,0,.263.221h.011a.267.267,0,0,0,.262-.316,1.876,1.876,0,0,0-1.413-1.477l-.9-.215v-.359a1.785,1.785,0,0,0,.834-1.51v-1.008a1.785,1.785,0,0,0-1.784-1.785,1.783,1.783,0,0,0-1.337.6,2.385,2.385,0,0,0-2.288-1.721,2.385,2.385,0,0,0-2.289,1.726A1.784,1.784,0,0,0,443.7-129a1.786,1.786,0,0,0-.607,1.346v1.008a1.785,1.785,0,0,0,.835,1.51v.359l-.9.215a1.876,1.876,0,0,0-1.445,1.832v1.806a.27.27,0,0,0,.27.271h2.167v.811a.27.27,0,0,0,.27.271h2.968a.271.271,0,0,0,.254-.286.27.27,0,0,0-.254-.254h-1.208V-121.3a.272.272,0,0,0-.287-.254.273.273,0,0,0-.254.254v1.191h-.948v-1.22a1.969,1.969,0,0,1,1.515-1.921l1.331-.319.856,1.947a.27.27,0,0,0,.247.162.269.269,0,0,0,.248-.162l.855-1.944,1.326.317a1.964,1.964,0,0,1,.891.477h.7C452.5-122.816,452.466-122.857,452.434-122.9Zm-.308-6.01,0,.007a1.245,1.245,0,0,1,1.244,1.245v.1H452.6a3.347,3.347,0,0,1-1.67-.457A1.25,1.25,0,0,1,452.126-128.907Zm-1.245,2.255v-.044l0,0v-.728a3.9,3.9,0,0,0,1.713.394h.774v.373a1.244,1.244,0,0,1-1.244,1.245,1.246,1.246,0,0,1-1.245-1.244Zm-4.217-1.527a1.84,1.84,0,0,1,1.84-1.84,1.84,1.84,0,0,1,1.84,1.84v.035l-1.005-.591a.269.269,0,0,0-.344.06,2.045,2.045,0,0,1-1.57.732h-.761Zm-3.033.524a1.244,1.244,0,0,1,1.243-1.246,1.245,1.245,0,0,1,1.2.9,3.339,3.339,0,0,1-1.665.444h-.773v-.093Zm0,1h0v-.372h.773a3.884,3.884,0,0,0,1.716-.4v.772a1.245,1.245,0,0,1-1.244,1.245A1.244,1.244,0,0,1,443.631-126.656Zm.378,5.327v.144H443.2v-1.2a.271.271,0,0,0-.271-.271.271.271,0,0,0-.27.271v1.2h-.541v-1.547a1.34,1.34,0,0,1,1.031-1.306l.858-.2.559,1.341A2.51,2.51,0,0,0,444.009-121.329Zm1.274-3.24v.026l-.408.981-.411-.985v-.363a1.8,1.8,0,0,0,.819,0Zm.657.8a2.542,2.542,0,0,0-.457.157l.263-.631.858.206a1.368,1.368,0,0,1,.2.063Zm1.343-.564a1.88,1.88,0,0,0-.553-.231l-.906-.216v-.356a1.78,1.78,0,0,0,.559-.557,2.4,2.4,0,0,0,.9.962Zm1.893.4v0L448.5-122.4l-.676-1.539v-.557a2.375,2.375,0,0,0,1.352,0Zm-.674-1.007,0,.007a1.841,1.841,0,0,1-1.839-1.839v-.626h.761a2.586,2.586,0,0,0,1.829-.757l1.088.639v.806A1.842,1.842,0,0,1,448.5-124.942Zm1.215.216h0a2.4,2.4,0,0,0,.906-.962,1.8,1.8,0,0,0,.557.552v.356l-.906.216a1.882,1.882,0,0,0-.557.233Zm1.338.957-.855-.2a1.512,1.512,0,0,1,.2-.065l.855-.2.265.634a2.547,2.547,0,0,0-.463-.171Zm.663-.769v-.371a1.794,1.794,0,0,0,.818,0v.358l-.413.985Z"/><path class="b" d="M451.22-121.555a.272.272,0,0,0-.254.254v1.191h-1.325a.27.27,0,0,0-.254.286.27.27,0,0,0,.254.254h1.677v-1.972A.267.267,0,0,0,451.22-121.555Z"/><path class="b" d="M447.4-127.083a.27.27,0,0,0,0,.382.269.269,0,0,0,.381,0,.267.267,0,0,0,.078-.189.271.271,0,0,0-.079-.192A.27.27,0,0,0,447.4-127.083Z"/><path class="b" d="M449.209-127.085a.27.27,0,0,0,0,.382.27.27,0,0,0,.383,0,.271.271,0,0,0,.08-.191.271.271,0,0,0-.079-.192A.27.27,0,0,0,449.209-127.085Z"/><path class="b" d="M449.019-126.174a.272.272,0,0,0-.383,0h0a.205.205,0,0,1-.29,0,.273.273,0,0,0-.383-.018.272.272,0,0,0-.018.383l.018.017a.745.745,0,0,0,1.055,0h0a.269.269,0,0,0,0-.381Z"/><path class="b" d="M452.574-131.417h.186a.271.271,0,0,0,.271-.27.271.271,0,0,0-.271-.271h-.186a.271.271,0,0,0-.271.271A.27.27,0,0,0,452.574-131.417Z"/><path class="b" d="M453.882-131.417h.185a.27.27,0,0,0,.271-.27.271.271,0,0,0-.271-.271h-.185a.27.27,0,0,0-.27.271A.27.27,0,0,0,453.882-131.417Z"/><path class="b" d="M453.339-130.684a.27.27,0,0,0,.254-.254v-.185a.272.272,0,0,0-.27-.271.271.271,0,0,0-.271.271v.185A.272.272,0,0,0,453.339-130.684Z"/><path class="b" d="M453.306-131.964a.271.271,0,0,0,.287-.254.181.181,0,0,0,0-.033v-.185a.271.271,0,0,0-.27-.27.272.272,0,0,0-.271.27v.185A.271.271,0,0,0,453.306-131.964Z"/><path class="b" d="M442.913-131.417h.185a.271.271,0,0,0,.271-.27.271.271,0,0,0-.271-.271h-.185a.271.271,0,0,0-.271.271A.27.27,0,0,0,442.913-131.417Z"/><path class="b" d="M444.225-131.417h.185a.27.27,0,0,0,.271-.27.271.271,0,0,0-.271-.271h-.185a.271.271,0,0,0-.271.271A.271.271,0,0,0,444.225-131.417Z"/><path class="b" d="M443.677-130.684a.27.27,0,0,0,.254-.254v-.185a.272.272,0,0,0-.27-.271.271.271,0,0,0-.271.271v.185A.271.271,0,0,0,443.677-130.684Z"/><path class="b" d="M443.644-131.964a.272.272,0,0,0,.287-.254v-.218a.272.272,0,0,0-.27-.27.272.272,0,0,0-.271.27v.185A.271.271,0,0,0,443.644-131.964Z"/><path class="b" d="M448.5-131.139a.271.271,0,0,0,.271-.271v-.712a.27.27,0,0,0-.271-.269.269.269,0,0,0-.27.269v.712A.27.27,0,0,0,448.5-131.139Z"/><path class="b" d="M448.692-132.958a.269.269,0,0,0,.078-.19.272.272,0,0,0-.08-.192.269.269,0,0,0-.381,0,.27.27,0,0,0,0,.381A.27.27,0,0,0,448.692-132.958Z"/><path class="b" d="M447.168-131.949a.271.271,0,0,0,.382-.027.269.269,0,0,0,0-.355h0l-.394-.394a.27.27,0,0,0-.383,0,.272.272,0,0,0,0,.383Z"/><path class="b" d="M449.816-131.952l.409-.41a.269.269,0,0,0,0-.381h0a.269.269,0,0,0-.382,0h0l-.409.409a.27.27,0,0,0,0,.383A.272.272,0,0,0,449.816-131.952Z"/><path class="b" d="M453.738-120.37l1.7.036a.168.168,0,0,0,.173-.166.168.168,0,0,0-.166-.173l-1.7-.034.007-1.7a.17.17,0,0,0-.17-.17.169.169,0,0,0-.169.169h0l0,1.7-1.7-.039a.17.17,0,0,0-.173.167.17.17,0,0,0,.166.173l1.7.033-.009,1.707a.169.169,0,0,0,.172.168.169.169,0,0,0,.168-.172Z"/><path class="b" d="M455.441-120.744l-1.635-.032.007-1.635a.24.24,0,0,0-.239-.24h0a.241.241,0,0,0-.24.239l0,1.626-1.625-.037a.238.238,0,0,0-.245.235.236.236,0,0,0,.066.171.237.237,0,0,0,.169.074l1.635.032-.009,1.64a.239.239,0,0,0,.24.236h0a.24.24,0,0,0,.237-.242l.006-1.621,1.624.034a.241.241,0,0,0,.245-.235A.242.242,0,0,0,455.441-120.744Zm-.006.34-1.766-.038-.007,1.766a.1.1,0,0,1-.1.1.1.1,0,0,1-.1-.1l.01-1.776-1.773-.035a.1.1,0,0,1-.07-.031.094.094,0,0,1-.028-.071.1.1,0,0,1,.1-.1h0l1.77.041,0-1.77a.1.1,0,0,1,.1-.1h0a.1.1,0,0,1,.1.1l-.007,1.774,1.774.035a.1.1,0,0,1,.07.03.1.1,0,0,1,.027.071A.1.1,0,0,1,455.435-120.4Z"/></g></g></svg>