<svg xmlns="http://www.w3.org/2000/svg" width="35" height="36.169" viewBox="0 0 35 36.169"><defs><style>.a{fill:#1d1d1d;}</style></defs><g transform="translate(-462.5 -261.916)"><path class="a" d="M477.648,282.3a2.876,2.876,0,0,1-.475-2.434,2.812,2.812,0,0,1,1.07-1.605,2.912,2.912,0,0,1,4.106,4.046c.17.031.337.053.5.091a2.254,2.254,0,0,1,1.681,1.5,2.282,2.282,0,0,1,.138.815q0,2.583,0,5.165a1.122,1.122,0,0,1-.672,1.088,1.847,1.847,0,0,1-.548.118,2.749,2.749,0,0,1-.416,0c-.084,0-.119.031-.113.114,0,.042,0,.084,0,.125q0,3.035,0,6.068a.689.689,0,0,1-.168.512.631.631,0,0,1-.477.183c-.953,0-1.907,0-2.86,0-.565,0-1.129,0-1.694,0a.588.588,0,0,1-.638-.64q0-3.075,0-6.15c0-.208,0-.2-.213-.211a3.816,3.816,0,0,1-.727-.064,1.123,1.123,0,0,1-.807-1.046c-.007-.338,0-.676,0-1.014,0-1.411-.005-2.823,0-4.234a2.3,2.3,0,0,1,1.275-2.132,2.152,2.152,0,0,1,.9-.256c.032,0,.064-.005.1-.01A.331.331,0,0,0,477.648,282.3Zm.6,8.486v1.306q0,2.325,0,4.652c0,.131.033.179.17.174.259-.01.518,0,.777,0,.221,0,.221,0,.221-.215v-6.554c0-.042,0-.084,0-.125,0-.078.033-.106.108-.106.32,0,.639,0,.958.005.035,0,.08.056.1.1a.394.394,0,0,1,0,.138q0,3.3,0,6.6c0,.121.025.174.16.169.282-.01.565-.01.847,0,.132,0,.163-.043.162-.167q-.006-2.306,0-4.611,0-3.659,0-7.318c0-.119.031-.164.156-.16.277.008.555,0,.833,0,.182,0,.183,0,.183.183v4.458c0,.167,0,.333,0,.5,0,.076.03.109.107.107.111,0,.223-.007.333,0s.141-.039.141-.145c0-1.7,0-3.407,0-5.11a1.16,1.16,0,0,0-1.133-1.155q-2.375-.012-4.749,0a1.052,1.052,0,0,0-.437.112,1.153,1.153,0,0,0-.678,1.128q0,2.4,0,4.791c0,.376,0,.376.379.376.2,0,.2,0,.2-.2,0-1.624,0-3.249,0-4.874,0-.136.03-.189.176-.182.268.011.537,0,.8,0,.189,0,.19,0,.19.191Zm0-10.2a1.748,1.748,0,1,0,1.743-1.751A1.761,1.761,0,0,0,478.252,280.587Z"/><path class="a" d="M473.723,267.671a3.1,3.1,0,0,0,.374-.005.2.2,0,0,0,.137-.1c.111-.249.2-.506.317-.752a.159.159,0,0,0-.045-.215q-.189-.183-.374-.37a1.059,1.059,0,0,1-.056-1.509c.366-.4.755-.79,1.159-1.156a1.047,1.047,0,0,1,1.436.021c.147.133.285.277.422.42a.167.167,0,0,0,.226.045c.247-.115.505-.2.752-.316a.214.214,0,0,0,.095-.157,5.133,5.133,0,0,0,0-.555,1.094,1.094,0,0,1,1.107-1.1c.463.009.926.011,1.389,0a1.11,1.11,0,0,1,1.133.815,1.017,1.017,0,0,1,.03.246c0,.2,0,.4,0,.6a.153.153,0,0,0,.107.169c.255.1.509.194.755.308a.152.152,0,0,0,.2-.039c.143-.145.283-.293.434-.428a1.043,1.043,0,0,1,1.426-.032,16.152,16.152,0,0,1,1.2,1.209,1.055,1.055,0,0,1-.084,1.457c-.131.137-.266.27-.4.4a.137.137,0,0,0-.03.182c.114.252.21.512.325.764a.214.214,0,0,0,.153.1c.189.012.38,0,.569.006a1.085,1.085,0,0,1,1.091,1.107c0,.477,0,.954,0,1.43a1.056,1.056,0,0,1-.609,1.008,1.228,1.228,0,0,1-.438.109,5.91,5.91,0,0,1-.61,0,.159.159,0,0,0-.171.124c-.1.255-.2.506-.313.754a.129.129,0,0,0,.03.17q.2.193.391.393a1.053,1.053,0,0,1,.05,1.528c-.35.388-.73.75-1.107,1.112a1.077,1.077,0,0,1-1.542-.056c-.125-.129-.256-.253-.382-.382a.138.138,0,0,0-.182-.031c-.252.113-.512.209-.764.324a.213.213,0,0,0-.1.15c-.012.189,0,.38-.006.569a1.085,1.085,0,0,1-1.1,1.1c-.463,0-.926-.01-1.389,0a1.116,1.116,0,0,1-1.135-.814,1.077,1.077,0,0,1-.032-.26c-.006-.195,0-.389,0-.584a.158.158,0,0,0-.121-.172q-.377-.14-.741-.309a.144.144,0,0,0-.193.031q-.179.185-.362.363a1.065,1.065,0,0,1-1.571.053c-.383-.348-.749-.718-1.1-1.1a1.054,1.054,0,0,1,.049-1.518q.183-.189.373-.372a.161.161,0,0,0,.042-.215c-.114-.247-.2-.505-.315-.753a.213.213,0,0,0-.154-.1c-.194-.013-.389,0-.583-.007a1.083,1.083,0,0,1-1.078-1.091c0-.495,0-.991,0-1.486a1.083,1.083,0,0,1,1.085-1.08c.074,0,.148,0,.222,0ZM480,263.086c-.176,0-.352.005-.528,0-.1,0-.137.038-.135.139a5.132,5.132,0,0,1,0,.555,1.086,1.086,0,0,1-.711,1c-.326.13-.645.274-.969.407a1.069,1.069,0,0,1-1.19-.172c-.15-.131-.289-.273-.429-.415-.069-.069-.124-.08-.2,0q-.368.376-.744.744c-.075.074-.068.126,0,.2.138.136.276.274.4.42a1.1,1.1,0,0,1,.155,1.263,7.514,7.514,0,0,0-.33.8,1.147,1.147,0,0,1-1.114.819c-.167,0-.334.005-.5,0-.1,0-.13.034-.129.13,0,.351.005.7,0,1.055,0,.114.043.143.148.14a4.884,4.884,0,0,1,.541,0,1.085,1.085,0,0,1,1,.705c.132.325.277.644.409.968a1.081,1.081,0,0,1-.177,1.2c-.125.142-.26.277-.4.408-.084.079-.1.14-.007.227q.369.355.725.725c.083.086.141.073.218-.005a5.473,5.473,0,0,1,.482-.458,1.016,1.016,0,0,1,1.046-.15c.34.131.67.284,1.01.414a1.116,1.116,0,0,1,.755,1.14c0,.148,0,.3,0,.444,0,.1.03.132.128.131q.534-.006,1.069,0c.1,0,.13-.034.129-.13a5.154,5.154,0,0,1,0-.6,1.079,1.079,0,0,1,.7-.964c.324-.132.645-.272.968-.407a1.077,1.077,0,0,1,1.193.162c.151.129.29.272.429.415.076.079.133.09.217,0q.355-.369.724-.725c.084-.081.08-.138,0-.218a5.255,5.255,0,0,1-.474-.505,1,1,0,0,1-.138-1.022c.131-.34.284-.671.415-1.01a1.129,1.129,0,0,1,1.152-.759c.144,0,.287,0,.431,0,.092,0,.134-.026.133-.126,0-.356,0-.713,0-1.069,0-.1-.031-.132-.129-.13a5.4,5.4,0,0,1-.583,0,1.072,1.072,0,0,1-.983-.711c-.113-.292-.237-.58-.353-.871a1.959,1.959,0,0,1-.139-.388,1.084,1.084,0,0,1,.342-.994c.115-.114.228-.231.344-.343a.111.111,0,0,0,0-.187c-.25-.247-.5-.494-.744-.745-.079-.081-.136-.071-.207.005-.108.114-.22.224-.334.333a1.118,1.118,0,0,1-1.361.216,7.35,7.35,0,0,0-.781-.319,1.151,1.151,0,0,1-.824-1.124c0-.167,0-.333,0-.5,0-.089-.032-.124-.122-.122C480.361,263.089,480.18,263.086,480,263.086Z"/><path class="a" d="M491.669,275.917a5.834,5.834,0,1,1-5.837,5.809A5.842,5.842,0,0,1,491.669,275.917Zm3.513,8.861a4.647,4.647,0,1,0-7.034-.013c.006-.068.014-.12.016-.173a2.293,2.293,0,0,1,.456-1.3,2.266,2.266,0,0,1,.957-.755c.1-.042.139-.084.07-.2a2.331,2.331,0,0,1,3.547-2.925,2.324,2.324,0,0,1,.5,2.911c-.081.148-.073.157.079.229a2.3,2.3,0,0,1,1.391,2.027C495.17,284.632,495.175,284.69,495.182,284.778Zm-3.5-1.277h0c-.412,0-.824-.007-1.235,0a1.173,1.173,0,0,0-1.109,1.108c-.009.351-.007.7,0,1.054a.239.239,0,0,0,.1.169,4.6,4.6,0,0,0,4.441.011.19.19,0,0,0,.116-.2c0-.31,0-.619,0-.929a1.172,1.172,0,0,0-1.221-1.22C492.41,283.5,492.045,283.5,491.68,283.5Zm-1.179-2.354A1.165,1.165,0,1,0,491.683,280,1.177,1.177,0,0,0,490.5,281.147Z"/><path class="a" d="M468.331,287.583a5.833,5.833,0,1,1,5.836-5.833A5.863,5.863,0,0,1,468.331,287.583Zm3.52-2.8a4.652,4.652,0,1,0-7.283-5.775,4.573,4.573,0,0,0,.254,5.756c.005-.062.011-.11.013-.159a2.327,2.327,0,0,1,1.4-2.062c.105-.045.15-.083.077-.213a2.245,2.245,0,0,1-.1-2.128,2.333,2.333,0,1,1,4.15,2.121c-.078.142-.07.152.073.22a2.3,2.3,0,0,1,1.4,2.052C471.837,284.646,471.843,284.7,471.851,284.781Zm-3.519-1.278c-.411,0-.823-.009-1.235,0a1.166,1.166,0,0,0-1.092,1.093c-.009.356-.007.712,0,1.068a.236.236,0,0,0,.1.169,4.626,4.626,0,0,0,4.443.013.191.191,0,0,0,.115-.2c0-.309,0-.619,0-.929a1.171,1.171,0,0,0-1.223-1.219Zm0-1.171a1.165,1.165,0,1,0-1.16-1.169A1.175,1.175,0,0,0,468.33,282.332Z"/><path class="a" d="M470.083,269.493c0-.148.005-.3,0-.444-.005-.105.038-.135.138-.133.3,0,.6,0,.9,0,.091,0,.135.024.134.125-.005.309-.005.619,0,.928,0,.092-.036.12-.124.119-.309,0-.619,0-.928,0-.092,0-.122-.037-.12-.124.005-.157,0-.314,0-.471Z"/><path class="a" d="M468.918,271.835c0,.157,0,.314,0,.471,0,.084-.033.114-.115.113-.314,0-.629,0-.943,0-.084,0-.114-.033-.113-.116q0-.471,0-.942c0-.084.033-.114.116-.113q.471,0,.942,0c.084,0,.115.033.114.115,0,.157,0,.315,0,.472Z"/><path class="a" d="M489.332,270.085c-.156,0-.313,0-.47,0-.084,0-.115-.032-.114-.114q0-.471,0-.942c0-.084.033-.114.115-.113q.471,0,.942,0c.085,0,.113.034.112.116,0,.314,0,.627,0,.941,0,.084-.034.116-.116.114-.157,0-.314,0-.471,0Z"/><path class="a" d="M491.663,268.918c.157,0,.314,0,.471,0,.082,0,.117.027.116.112q0,.471,0,.942c0,.082-.029.116-.113.115q-.471,0-.942,0c-.083,0-.115-.031-.114-.114q0-.471,0-.942c0-.082.03-.117.114-.115.156,0,.313,0,.47,0Z"/><path class="a" d="M491.679,273.584c.153,0,.305,0,.457,0,.083,0,.116.031.116.114,0,.314,0,.628,0,.942,0,.082-.03.116-.114.115q-.471,0-.942,0c-.081,0-.116-.03-.115-.114q0-.471,0-.942c0-.083.029-.117.113-.115C491.356,273.586,491.518,273.584,491.679,273.584Z"/><path class="a" d="M468.918,269.507c0,.153,0,.306,0,.459,0,.077-.02.121-.108.12-.32,0-.639,0-.958,0-.081,0-.1-.039-.1-.112,0-.315,0-.629,0-.944,0-.084.033-.114.116-.113q.471,0,.944,0c.087,0,.111.039.11.118C468.916,269.193,468.918,269.35,468.918,269.507Z"/><path class="a" d="M491.659,272.418c-.152,0-.3,0-.458,0-.077,0-.121-.02-.12-.108,0-.32,0-.639,0-.958,0-.08.038-.1.112-.1q.471,0,.944,0c.084,0,.114.033.113.115,0,.31,0,.62,0,.93,0,.1-.042.127-.134.125C491.965,272.415,491.812,272.418,491.659,272.418Z"/><path class="a" d="M468.33,274.751c-.158,0-.315,0-.472,0-.076,0-.109-.029-.108-.106q0-.48,0-.958c0-.079.035-.1.11-.1q.471,0,.944,0c.082,0,.116.029.115.114q0,.471,0,.944c0,.085-.037.113-.117.111C468.644,274.749,468.487,274.751,468.33,274.751Z"/><path class="a" d="M480,265.419a4.084,4.084,0,1,1-4.086,4.069A4.095,4.095,0,0,1,480,265.419Zm0,1.17a2.914,2.914,0,1,0,2.912,2.911A2.913,2.913,0,0,0,480,266.589Z"/><path class="a" d="M478.25,269.495c0-.578,0-1.157,0-1.735a.575.575,0,0,1,.644-.584.685.685,0,0,1,.272.094q1.425.852,2.845,1.713a.577.577,0,0,1,0,1.035q-1.419.862-2.847,1.712a.585.585,0,0,1-.919-.527c0-.569,0-1.138,0-1.708Zm1.183.687a.311.311,0,0,0,.067-.017c.338-.2.676-.4,1.011-.6.086-.052.048-.1-.023-.141-.286-.168-.57-.341-.855-.512-.058-.034-.118-.064-.2-.108Z"/></g></svg>