<svg xmlns="http://www.w3.org/2000/svg" width="43" height="38" viewBox="0 0 43 38"><defs><style>.a,.b,.c,.e{fill:none;}.a,.b,.c{stroke:#000;}.a{stroke-width:0.2px;}.b{stroke-width:0.4px;}.c{stroke-width:0.5px;}.d{stroke:none;}</style></defs><g transform="translate(-512 -358.42)"><g transform="translate(539.378 361.102)"><circle class="a" cx="1.298" cy="1.298" r="1.298" transform="translate(0.794 0)"/><path class="a" d="M.644,32.867H.773v2.575a.646.646,0,0,0,.644.644H2.769a.646.646,0,0,0,.644-.644v-.15a1.628,1.628,0,0,1-.193-.751V31.172a1.606,1.606,0,0,1,.966-1.47v-.258a.646.646,0,0,0-.644-.644H.644A.646.646,0,0,0,0,29.444v2.779A.639.639,0,0,0,.644,32.867Z" transform="translate(0 -25.72)"/><circle class="a" cx="1.298" cy="1.298" r="1.298" transform="translate(9.786 0)"/><path class="a" d="M83.7,29.344V29.6a1.606,1.606,0,0,1,.966,1.47V34.43a1.507,1.507,0,0,1-.193.751v.15a.646.646,0,0,0,.644.644h1.352a.646.646,0,0,0,.644-.644V32.756h.129a.646.646,0,0,0,.644-.644V29.344a.646.646,0,0,0-.644-.644h-2.9A.646.646,0,0,0,83.7,29.344Z" transform="translate(-74.717 -25.631)"/><path class="a" d="M39.1,45.544h0v3.369a.646.646,0,0,0,.644.644h.247v3.037a.646.646,0,0,0,.644.644h1.728a.646.646,0,0,0,.644-.644V49.546h.247A.646.646,0,0,0,43.9,48.9V45.544h0a.646.646,0,0,0-.644-.644H39.744A.639.639,0,0,0,39.1,45.544Z" transform="translate(-34.904 -40.093)"/><circle class="a" cx="1.492" cy="1.492" r="1.492" transform="translate(5.097 1.288)"/></g><g transform="translate(514.613 365.681)"><g transform="translate(4.322 0.023)"><g transform="translate(0 0)"><ellipse class="a" cx="1.495" cy="1.402" rx="1.495" ry="1.402" transform="translate(0)"/></g></g><g transform="translate(3.628 3.628)"><path class="a" d="M164.352,163.224l-.329-2.566a.723.723,0,0,0-.721-.653h-.4a.366.366,0,0,0-.257.106l-.469.469-.469-.469a.365.365,0,0,0-.257-.106h-.4a.721.721,0,0,0-.721.644l-.33,2.576a.364.364,0,0,0,.36.409h.392l.3,3.7a.723.723,0,0,0,.722.653h.795a.725.725,0,0,0,.723-.66l.3-3.694h.391a.362.362,0,0,0,.272-.123A.357.357,0,0,0,164.352,163.224Z" transform="translate(-160.001 -160.005)"/></g><g transform="translate(8.06 0.023)"><g transform="translate(0 0)"><circle class="a" cx="1.402" cy="1.402" r="1.402" transform="translate(0)"/></g></g><g transform="translate(0.726 0)"><path class="a" d="M33.45,0A1.451,1.451,0,1,0,34.9,1.456,1.453,1.453,0,0,0,33.45,0Z" transform="translate(-31.999 -0.005)"/></g><g transform="translate(8.074 3.628)"><path class="a" d="M359.6,163.224l-.329-2.565a.722.722,0,0,0-.721-.654h-.4a.365.365,0,0,0-.257.106l-.469.469-.469-.469a.365.365,0,0,0-.256-.106h-.4a.691.691,0,0,0-.128.024,1.412,1.412,0,0,1,.189.546l.329,2.557a1.086,1.086,0,0,1-.266.861,1.052,1.052,0,0,1-.36.255l.241,2.361a.723.723,0,0,0,.722.653h.795a.725.725,0,0,0,.723-.66l.3-2.969h.391a.362.362,0,0,0,.272-.123A.357.357,0,0,0,359.6,163.224Z" transform="translate(-356.063 -160.005)"/></g><g transform="translate(0 3.628)"><path class="a" d="M3.174,163.989a1.087,1.087,0,0,1-.263-.856l.33-2.577a1.341,1.341,0,0,1,.181-.528.682.682,0,0,0-.122-.023H2.9a.366.366,0,0,0-.257.106l-.469.469-.469-.469a.365.365,0,0,0-.256-.106h-.4a.721.721,0,0,0-.721.644L0,163.225a.364.364,0,0,0,.36.409H.754l.3,2.975a.723.723,0,0,0,.722.653h.795a.725.725,0,0,0,.723-.66l.241-2.355A1.088,1.088,0,0,1,3.174,163.989Z" transform="translate(0.001 -160.005)"/></g></g><g transform="translate(527.452 381.412)"><g transform="translate(0.736)"><g transform="translate(0 1.52)"><path class="a" d="M31.471,64.942a1.471,1.471,0,1,1,1.471-1.471A1.473,1.473,0,0,1,31.471,64.942Z" transform="translate(-30 -62)"/></g><g transform="translate(8.004 1.52)"><path class="a" d="M363.471,64.942a1.471,1.471,0,1,1,1.471-1.471A1.473,1.473,0,0,1,363.471,64.942Z" transform="translate(-362 -62)"/></g><g transform="translate(3.634)"><path class="a" d="M182.839,3.678a1.839,1.839,0,1,1,1.839-1.839A1.841,1.841,0,0,1,182.839,3.678Z" transform="translate(-181)"/></g><path class="a" d="M153.942,151.516v2.537a.368.368,0,0,1-.736,0v-2.537A2.571,2.571,0,0,0,151,154.053v2.207a.368.368,0,0,0,.368.368h.824l.281,3.39a.368.368,0,0,0,.366.337h1.471a.368.368,0,0,0,.366-.337l.281-3.39h.824a.368.368,0,0,0,.368-.368v-2.207A2.571,2.571,0,0,0,153.942,151.516Z" transform="translate(-148.102 -147.938)"/></g><path class="a" d="M2.942,186.046v-2.207a3.268,3.268,0,0,1,.388-1.521A2.183,2.183,0,0,0,2.207,182,2.209,2.209,0,0,0,0,184.207v1.839a.368.368,0,0,0,.368.368h.4l.335,3.347a.368.368,0,0,0,.366.331H2.942a.368.368,0,0,0,.366-.331l.272-2.718a1.1,1.1,0,0,1-.638-1Z" transform="translate(0 -177.674)"/><path class="a" d="M369.566,184.207A2.209,2.209,0,0,0,367.359,182a2.183,2.183,0,0,0-1.123.318,3.268,3.268,0,0,1,.388,1.521v2.207a1.1,1.1,0,0,1-.638,1l.272,2.718a.368.368,0,0,0,.366.331H368.1a.368.368,0,0,0,.366-.331l.335-3.347h.4a.368.368,0,0,0,.368-.368Z" transform="translate(-357.149 -177.674)"/></g><g class="b" transform="translate(512 362.42)"><circle class="d" cx="9" cy="9" r="9"/><circle class="e" cx="9" cy="9" r="8.8"/></g><g class="b" transform="translate(537 358.42)"><circle class="d" cx="9" cy="9" r="9"/><circle class="e" cx="9" cy="9" r="8.8"/></g><g class="b" transform="translate(524 378.42)"><ellipse class="d" cx="9.5" cy="9" rx="9.5" ry="9"/><ellipse class="e" cx="9.5" cy="9" rx="9.3" ry="8.8"/></g><line class="c" y1="1.594" x2="5" transform="translate(530.319 366.68)"/><line class="c" y1="1.594" x2="5" transform="translate(538.228 378.739) rotate(-45)"/></g></svg>