<svg xmlns="http://www.w3.org/2000/svg" width="14.334" height="17.642" viewBox="0 0 14.334 17.642"><defs><style>.a{fill:#d34646;}</style></defs><g transform="translate(-3.112 -1)"><g transform="translate(-146.575 -433.241)"><path class="a" d="M162.643,436.446H159.61v-.551a1.654,1.654,0,0,0-1.654-1.654h-2.205a1.654,1.654,0,0,0-1.654,1.654v.551h-3.032a1.378,1.378,0,0,0-1.379,1.378v1.1a.551.551,0,0,0,.551.551H163.47a.551.551,0,0,0,.551-.551v-1.1A1.378,1.378,0,0,0,162.643,436.446Zm-7.443-.551a.552.552,0,0,1,.551-.551h2.205a.552.552,0,0,1,.551.551v.551H155.2Z" transform="translate(0 0)"/><path class="a" d="M152.337,452.209a.172.172,0,0,0-.172.181l.455,9.546a1.652,1.652,0,0,0,1.652,1.575h8.372a1.652,1.652,0,0,0,1.652-1.575l.455-9.546a.172.172,0,0,0-.172-.181Zm8.326,1.379a.551.551,0,1,1,1.1,0v7.167a.551.551,0,1,1-1.1,0Zm-2.757,0a.551.551,0,1,1,1.1,0v7.167a.551.551,0,1,1-1.1,0Zm-2.756,0a.551.551,0,1,1,1.1,0v7.167a.551.551,0,1,1-1.1,0Z" transform="translate(-1.603 -11.628)"/></g></g></svg>