<svg xmlns="http://www.w3.org/2000/svg" width="49" height="49" viewBox="0 0 55 55">
  <g id="Groupe_27" data-name="Groupe 27" transform="translate(-512 -353.42)">
    <g id="team" transform="translate(551.628 356.188)">
      <circle id="Ellipse_5" data-name="Ellipse 5" cx="1.298" cy="1.298" r="1.298" transform="translate(0.794 0)" fill="#ff6481"/>
      <path id="Tracé_48" data-name="Tracé 48" d="M.644,32.867H.773v2.575a.646.646,0,0,0,.644.644H2.769a.646.646,0,0,0,.644-.644v-.15a1.628,1.628,0,0,1-.193-.751V31.172a1.606,1.606,0,0,1,.966-1.47v-.258a.646.646,0,0,0-.644-.644H.644A.646.646,0,0,0,0,29.444v2.779A.639.639,0,0,0,.644,32.867Z" transform="translate(0 -25.72)" fill="#ff6481"/>
      <circle id="Ellipse_6" data-name="Ellipse 6" cx="1.298" cy="1.298" r="1.298" transform="translate(9.786 0)" fill="#ff6481"/>
      <path id="Tracé_49" data-name="Tracé 49" d="M83.7,29.344V29.6a1.606,1.606,0,0,1,.966,1.47V34.43a1.507,1.507,0,0,1-.193.751v.15a.646.646,0,0,0,.644.644h1.352a.646.646,0,0,0,.644-.644V32.756h.129a.646.646,0,0,0,.644-.644V29.344a.646.646,0,0,0-.644-.644h-2.9A.646.646,0,0,0,83.7,29.344Z" transform="translate(-74.717 -25.631)" fill="#ff6481"/>
      <path id="Tracé_50" data-name="Tracé 50" d="M39.1,45.544h0v3.369a.646.646,0,0,0,.644.644h.247v3.037a.646.646,0,0,0,.644.644h1.728a.646.646,0,0,0,.644-.644V49.546h.247A.646.646,0,0,0,43.9,48.9V45.544h0a.646.646,0,0,0-.644-.644H39.744A.639.639,0,0,0,39.1,45.544Z" transform="translate(-34.904 -40.093)" fill="#ff6481"/>
      <circle id="Ellipse_7" data-name="Ellipse 7" cx="1.492" cy="1.492" r="1.492" transform="translate(5.097 1.288)" fill="#ff6481"/>
    </g>
    <g id="teamwork" transform="translate(515.613 360.971)">
      <g id="Groupe_13" data-name="Groupe 13" transform="translate(4.322 0.023)">
        <g id="Groupe_12" data-name="Groupe 12" transform="translate(0 0)">
          <ellipse id="Ellipse_8" data-name="Ellipse 8" cx="1.495" cy="1.402" rx="1.495" ry="1.402" transform="translate(0)" fill="#fe879d"/>
        </g>
      </g>
      <g id="Groupe_15" data-name="Groupe 15" transform="translate(3.628 3.628)">
        <g id="Groupe_14" data-name="Groupe 14">
          <path id="Tracé_51" data-name="Tracé 51" d="M164.352,163.224l-.329-2.566a.723.723,0,0,0-.721-.653h-.4a.366.366,0,0,0-.257.106l-.469.469-.469-.469a.365.365,0,0,0-.257-.106h-.4a.721.721,0,0,0-.721.644l-.33,2.576a.364.364,0,0,0,.36.409h.392l.3,3.7a.723.723,0,0,0,.722.653h.795a.725.725,0,0,0,.723-.66l.3-3.694h.391a.362.362,0,0,0,.272-.123A.357.357,0,0,0,164.352,163.224Z" transform="translate(-160.001 -160.005)" fill="#fe879d"/>
        </g>
      </g>
      <g id="Groupe_17" data-name="Groupe 17" transform="translate(8.06 0.023)">
        <g id="Groupe_16" data-name="Groupe 16" transform="translate(0 0)">
          <circle id="Ellipse_9" data-name="Ellipse 9" cx="1.402" cy="1.402" r="1.402" transform="translate(0)" fill="#fe879d"/>
        </g>
      </g>
      <g id="Groupe_19" data-name="Groupe 19" transform="translate(0.726 0)">
        <g id="Groupe_18" data-name="Groupe 18">
          <path id="Tracé_52" data-name="Tracé 52" d="M33.45,0A1.451,1.451,0,1,0,34.9,1.456,1.453,1.453,0,0,0,33.45,0Z" transform="translate(-31.999 -0.005)" fill="#fe879d"/>
        </g>
      </g>
      <g id="Groupe_21" data-name="Groupe 21" transform="translate(8.074 3.628)">
        <g id="Groupe_20" data-name="Groupe 20">
          <path id="Tracé_53" data-name="Tracé 53" d="M359.6,163.224l-.329-2.565a.722.722,0,0,0-.721-.654h-.4a.365.365,0,0,0-.257.106l-.469.469-.469-.469a.365.365,0,0,0-.256-.106h-.4a.691.691,0,0,0-.128.024,1.412,1.412,0,0,1,.189.546l.329,2.557a1.086,1.086,0,0,1-.266.861,1.052,1.052,0,0,1-.36.255l.241,2.361a.723.723,0,0,0,.722.653h.795a.725.725,0,0,0,.723-.66l.3-2.969h.391a.362.362,0,0,0,.272-.123A.357.357,0,0,0,359.6,163.224Z" transform="translate(-356.063 -160.005)" fill="#fe879d"/>
        </g>
      </g>
      <g id="Groupe_23" data-name="Groupe 23" transform="translate(0 3.628)">
        <g id="Groupe_22" data-name="Groupe 22">
          <path id="Tracé_54" data-name="Tracé 54" d="M3.174,163.989a1.087,1.087,0,0,1-.263-.856l.33-2.577a1.341,1.341,0,0,1,.181-.528.682.682,0,0,0-.122-.023H2.9a.366.366,0,0,0-.257.106l-.469.469-.469-.469a.365.365,0,0,0-.256-.106h-.4a.721.721,0,0,0-.721.644L0,163.225a.364.364,0,0,0,.36.409H.754l.3,2.975a.723.723,0,0,0,.722.653h.795a.725.725,0,0,0,.723-.66l.241-2.355A1.088,1.088,0,0,1,3.174,163.989Z" transform="translate(0.001 -160.005)" fill="#fe879d"/>
        </g>
      </g>
    </g>
    <g id="team-leader" transform="translate(533.721 387.275)">
      <g id="Team_Leader_1_" transform="translate(0.736)">
        <g id="Groupe_24" data-name="Groupe 24" transform="translate(0 1.52)">
          <path id="Tracé_55" data-name="Tracé 55" d="M31.471,64.942a1.471,1.471,0,1,1,1.471-1.471A1.473,1.473,0,0,1,31.471,64.942Z" transform="translate(-30 -62)" fill="#ce3955"/>
        </g>
        <g id="Groupe_25" data-name="Groupe 25" transform="translate(8.141 1.52)">
          <path id="Tracé_56" data-name="Tracé 56" d="M363.471,64.942a1.471,1.471,0,1,1,1.471-1.471A1.473,1.473,0,0,1,363.471,64.942Z" transform="translate(-362 -62)" fill="#ce3955"/>
        </g>
        <g id="Groupe_26" data-name="Groupe 26" transform="translate(3.703)">
          <path id="Tracé_57" data-name="Tracé 57" d="M182.839,3.678a1.839,1.839,0,1,1,1.839-1.839A1.841,1.841,0,0,1,182.839,3.678Z" transform="translate(-181)" fill="#ce3955"/>
        </g>
        <path id="Tracé_58" data-name="Tracé 58" d="M153.942,151.516v2.537a.368.368,0,0,1-.736,0v-2.537A2.571,2.571,0,0,0,151,154.053v2.207a.368.368,0,0,0,.368.368h.824l.281,3.39a.368.368,0,0,0,.366.337h1.471a.368.368,0,0,0,.366-.337l.281-3.39h.824a.368.368,0,0,0,.368-.368v-2.207A2.571,2.571,0,0,0,153.942,151.516Z" transform="translate(-148.033 -147.801)" fill="#ce3955"/>
      </g>
      <path id="Tracé_59" data-name="Tracé 59" d="M2.942,186.046v-2.207a3.268,3.268,0,0,1,.388-1.521A2.183,2.183,0,0,0,2.207,182,2.209,2.209,0,0,0,0,184.207v1.839a.368.368,0,0,0,.368.368h.4l.335,3.347a.368.368,0,0,0,.366.331H2.942a.368.368,0,0,0,.366-.331l.272-2.718a1.1,1.1,0,0,1-.638-1Z" transform="translate(0 -177.537)" fill="#ce3955"/>
      <path id="Tracé_60" data-name="Tracé 60" d="M369.566,184.207A2.209,2.209,0,0,0,367.359,182a2.183,2.183,0,0,0-1.123.318,3.268,3.268,0,0,1,.388,1.521v2.207a1.1,1.1,0,0,1-.638,1l.272,2.718a.368.368,0,0,0,.366.331H368.1a.368.368,0,0,0,.366-.331l.335-3.347h.4a.368.368,0,0,0,.368-.368Z" transform="translate(-357.012 -177.537)" fill="#ce3955"/>
    </g>
    <g id="Ellipse_10" data-name="Ellipse 10" transform="translate(512 357.42)" fill="none" stroke="#ce3955" stroke-width="0.4">
      <circle cx="9" cy="9" r="9" stroke="none"/>
      <circle cx="9" cy="9" r="8.8" fill="none"/>
    </g>
    <g id="Ellipse_10-2" data-name="Ellipse 10" transform="translate(549 353.42)" fill="none" stroke="#ce3955" stroke-width="0.4">
      <circle cx="9" cy="9" r="9" stroke="none"/>
      <circle cx="9" cy="9" r="8.8" fill="none"/>
    </g>
    <g id="Ellipse_10-3" data-name="Ellipse 10" transform="translate(530 384.42)" fill="none" stroke="#ce3955" stroke-width="0.4">
      <ellipse cx="9.5" cy="9" rx="9.5" ry="9" stroke="none"/>
      <ellipse cx="9.5" cy="9" rx="9.3" ry="8.8" fill="none"/>
    </g>
    <line id="Ligne_2" data-name="Ligne 2" y1="1.594" x2="13.551" transform="translate(532.326 362.964)" fill="none" stroke="#ce3955" stroke-width="0.5"/>
    <line id="Ligne_3" data-name="Ligne 3" y1="1.594" x2="13.551" transform="translate(544.109 382.336) rotate(-45)" fill="none" stroke="#ce3955" stroke-width="0.5"/>
  </g>
</svg>
