<svg xmlns="http://www.w3.org/2000/svg" width="35" height="35" viewBox="0 0 35 35"><defs><style>.a{fill:#1d1d1d;}</style></defs><g transform="translate(-238.5 -238.5)"><path class="a" d="M271.167,245.5a2.334,2.334,0,1,0,2.333,2.333A2.336,2.336,0,0,0,271.167,245.5Zm0,3.5a1.166,1.166,0,1,1,1.166-1.167A1.168,1.168,0,0,1,271.167,249Z"/><path class="a" d="M240.833,264.75a2.333,2.333,0,1,0,2.334,2.333A2.336,2.336,0,0,0,240.833,264.75Zm0,3.5A1.167,1.167,0,1,1,242,267.083,1.167,1.167,0,0,1,240.833,268.25Z"/><path class="a" d="M270.036,246.237,265,243.808a.583.583,0,1,0-.507,1.05l5.033,2.43a.57.57,0,0,0,.253.058.584.584,0,0,0,.254-1.109Z"/><path class="a" d="M264.75,268.833a2.333,2.333,0,1,0,2.333,2.334A2.336,2.336,0,0,0,264.75,268.833Zm0,3.5a1.167,1.167,0,1,1,1.167-1.166A1.168,1.168,0,0,1,264.75,272.333Z"/><path class="a" d="M263.619,269.571l-5.032-2.43a.583.583,0,0,0-.507,1.051l5.032,2.429a.575.575,0,0,0,.253.059.584.584,0,0,0,.254-1.109Z"/><path class="a" d="M256,254.25a2.333,2.333,0,1,0,2.333,2.333A2.336,2.336,0,0,0,256,254.25Zm0,3.5a1.166,1.166,0,1,1,1.167-1.167A1.168,1.168,0,0,1,256,257.75Z"/><path class="a" d="M254.974,255.053l-3.865-3.013a.584.584,0,0,0-.718.92l3.866,3.013a.583.583,0,1,0,.717-.92Z"/><path class="a" d="M266.5,253.667a6.416,6.416,0,1,0,6.417,6.416A6.424,6.424,0,0,0,266.5,253.667Zm0,11.666a5.25,5.25,0,1,1,5.25-5.25A5.256,5.256,0,0,1,266.5,265.333Z"/><path class="a" d="M266.5,256a2.333,2.333,0,1,0,2.333,2.333A2.336,2.336,0,0,0,266.5,256Zm0,3.5a1.167,1.167,0,1,1,1.167-1.167A1.168,1.168,0,0,1,266.5,259.5Z"/><path class="a" d="M268.192,261.833h-3.384A1.787,1.787,0,0,0,263,263.592v1.538a.585.585,0,0,0,.291.505,6.385,6.385,0,0,0,6.418,0,.584.584,0,0,0,.291-.505v-1.537A1.787,1.787,0,0,0,268.192,261.833Zm.641,2.949a5.29,5.29,0,0,1-4.666,0v-1.189a.619.619,0,0,1,.641-.593h3.384a.619.619,0,0,1,.641.593v1.189Z"/><path class="a" d="M252.5,260.667a6.417,6.417,0,1,0,6.417,6.416A6.424,6.424,0,0,0,252.5,260.667Zm0,11.666a5.25,5.25,0,1,1,5.25-5.25A5.256,5.256,0,0,1,252.5,272.333Z"/><path class="a" d="M252.5,263a2.333,2.333,0,1,0,2.333,2.333A2.336,2.336,0,0,0,252.5,263Zm0,3.5a1.167,1.167,0,1,1,1.167-1.167A1.168,1.168,0,0,1,252.5,266.5Z"/><path class="a" d="M254.192,268.833h-3.384A1.787,1.787,0,0,0,249,270.592v1.538a.585.585,0,0,0,.291.505,6.385,6.385,0,0,0,6.418,0,.584.584,0,0,0,.291-.505v-1.537A1.787,1.787,0,0,0,254.192,268.833Zm.641,2.949a5.29,5.29,0,0,1-4.666,0v-1.189a.619.619,0,0,1,.641-.593h3.384a.619.619,0,0,1,.641.593v1.189Z"/><path class="a" d="M244.917,246.083a6.417,6.417,0,1,0,6.416,6.417A6.425,6.425,0,0,0,244.917,246.083Zm0,11.667a5.25,5.25,0,1,1,5.25-5.25A5.256,5.256,0,0,1,244.917,257.75Z"/><path class="a" d="M244.917,248.417a2.333,2.333,0,1,0,2.333,2.333A2.336,2.336,0,0,0,244.917,248.417Zm0,3.5a1.167,1.167,0,1,1,1.166-1.167A1.168,1.168,0,0,1,244.917,251.917Z"/><path class="a" d="M246.609,254.25h-3.385a1.786,1.786,0,0,0-1.807,1.759v1.537a.583.583,0,0,0,.291.506,6.385,6.385,0,0,0,6.418,0,.584.584,0,0,0,.291-.505v-1.538A1.786,1.786,0,0,0,246.609,254.25Zm.641,2.949a5.292,5.292,0,0,1-4.667,0v-1.19a.619.619,0,0,1,.641-.592h3.385a.619.619,0,0,1,.641.592v1.19Z"/><path class="a" d="M258.917,238.5a6.416,6.416,0,1,0,6.416,6.417A6.425,6.425,0,0,0,258.917,238.5Zm0,11.667a5.25,5.25,0,1,1,5.25-5.25A5.256,5.256,0,0,1,258.917,250.167Z"/><path class="a" d="M258.917,240.833a2.334,2.334,0,1,0,2.333,2.334A2.337,2.337,0,0,0,258.917,240.833Zm0,3.5a1.166,1.166,0,1,1,1.166-1.166A1.167,1.167,0,0,1,258.917,244.333Z"/><path class="a" d="M260.609,246.667h-3.385a1.785,1.785,0,0,0-1.807,1.758v1.538a.582.582,0,0,0,.291.505,6.385,6.385,0,0,0,6.418,0,.583.583,0,0,0,.291-.5v-1.538A1.786,1.786,0,0,0,260.609,246.667Zm.641,2.948a5.286,5.286,0,0,1-4.667,0v-1.189a.619.619,0,0,1,.641-.593h3.385a.619.619,0,0,1,.641.593v1.189Z"/><path class="a" d="M253.527,244.537a.584.584,0,0,0-.822-.064l-4.043,3.459a.584.584,0,0,0,.759.887l4.042-3.46A.582.582,0,0,0,253.527,244.537Z"/><path class="a" d="M266.383,253.9l-3.5-4.667a.583.583,0,1,0-.933.7l3.5,4.667a.583.583,0,1,0,.933-.7Z"/><path class="a" d="M261.6,262.012a.585.585,0,0,0-.817-.116l-3.258,2.443a.583.583,0,1,0,.7.933l3.258-2.444A.583.583,0,0,0,261.6,262.012Z"/><path class="a" d="M246.667,266.5h-4.084a.583.583,0,0,0,0,1.167h4.084a.583.583,0,0,0,0-1.167Z"/><path class="a" d="M244.917,238.5a2.334,2.334,0,1,0,2.333,2.333A2.336,2.336,0,0,0,244.917,238.5Zm0,3.5a1.166,1.166,0,1,1,1.166-1.167A1.168,1.168,0,0,1,244.917,242Z"/><path class="a" d="M244.917,242a.584.584,0,0,0-.584.583v4.084a.584.584,0,0,0,1.167,0v-4.084A.583.583,0,0,0,244.917,242Z"/></g></svg>