<svg xmlns="http://www.w3.org/2000/svg" width="41.223" height="28.856" viewBox="0 0 41.223 28.856">
  <path id="Icon_awesome-users" data-name="Icon awesome-users" d="M6.183,14.617a4.122,4.122,0,1,0-4.122-4.122A4.126,4.126,0,0,0,6.183,14.617Zm28.856,0a4.122,4.122,0,1,0-4.122-4.122A4.126,4.126,0,0,0,35.039,14.617ZM37.1,16.678H32.978a4.11,4.11,0,0,0-2.9,1.2,9.422,9.422,0,0,1,4.837,7.047h4.251a2.059,2.059,0,0,0,2.061-2.061V20.8A4.126,4.126,0,0,0,37.1,16.678Zm-16.489,0A7.214,7.214,0,1,0,13.4,9.464,7.21,7.21,0,0,0,20.611,16.678Zm4.947,2.061h-.535a9.96,9.96,0,0,1-8.824,0h-.535a7.422,7.422,0,0,0-7.42,7.42v1.855a3.093,3.093,0,0,0,3.092,3.092h18.55a3.093,3.093,0,0,0,3.092-3.092V26.159A7.422,7.422,0,0,0,25.558,18.739Zm-14.409-.863a4.11,4.11,0,0,0-2.9-1.2H4.122A4.126,4.126,0,0,0,0,20.8v2.061a2.059,2.059,0,0,0,2.061,2.061H6.306A9.445,9.445,0,0,1,11.149,17.876Z" transform="translate(0 -2.25)" fill="#00b3ff"/>
</svg>
