<svg xmlns="http://www.w3.org/2000/svg" xmlns:xlink="http://www.w3.org/1999/xlink" width="137.172" height="99.06" viewBox="0 0 137.172 99.06"><defs><style>.a{fill:#058b46;}.b{fill:#056b33;}.c{opacity:0.65;}.d{fill:url(#a);}.e{fill:#08b254;}</style><linearGradient id="a" y1="0.5" x2="1" y2="0.5" gradientUnits="objectBoundingBox"><stop offset="0" stop-color="#07ee86"/><stop offset="1" stop-color="#07fe84"/></linearGradient></defs><g transform="translate(2.309 69.025)"><path d="M12.543,376.113h3.576L23.176,396.6l7.361-21.589L37.975,396.6l7.095-20.486h3.576L37.861,405.045l-7.285-21.532-7.247,21.532Z" transform="translate(-12.543 -375.01)"/><path d="M246.592,408.851V381h14.685v3.024H249.9v7.989h11.375V395.1H249.9V405.77h11.375v3.081Z" transform="translate(-203.512 -379.901)"/><path d="M378.023,408.851V381h14.685v3.024H381.333v7.989h11.375V395.1H381.333v13.753Z" transform="translate(-310.752 -379.901)"/><path d="M506.457,408.851V381h3.31v24.69h10.519v3.158Z" transform="translate(-415.546 -379.901)"/><path d="M600.2,408.851V396.107L590.763,381h3.823l7.285,12.078L609.119,381h3.8l-9.416,15.1v12.744Z" transform="translate(-484.335 -379.901)"/></g><g transform="translate(0 5.82)"><path class="a" d="M97.981,34.345l-8.26,16.9a3.105,3.105,0,0,1-5.823-.7L80.561,35.308A4.754,4.754,0,0,0,75.8,31.622H61.058a4.824,4.824,0,0,0-4.683,3.815L53.085,50.82a3.1,3.1,0,0,1-5.789.786L38.24,34.241a4.452,4.452,0,0,0-3.948-2.394H5.4A5.4,5.4,0,0,0,0,37.25V48.909a5.4,5.4,0,0,0,5.4,5.4H18.6a7.19,7.19,0,0,1,6.187,3.528L40.449,84.305a3.871,3.871,0,0,0,3.331,1.9H56.215A3.871,3.871,0,0,0,59.874,83.6L66.6,64.11a2.227,2.227,0,0,1,4.193-.047L78.072,83.68A3.87,3.87,0,0,0,81.7,86.2H93.815a3.87,3.87,0,0,0,3.353-1.938l15.189-26.356a7.189,7.189,0,0,1,6.229-3.6H131.77a5.4,5.4,0,0,0,5.4-5.4V37.25a5.4,5.4,0,0,0-5.4-5.4H101.981A4.453,4.453,0,0,0,97.981,34.345Z" transform="translate(0 -31.622)"/><path class="b" d="M561.564,134.855a5.4,5.4,0,0,1-5.153,3.778h-13.2a7.188,7.188,0,0,0-6.187,3.528L521.9,168.483a2.823,2.823,0,0,1-1.328,1.328c3.413-8.156,6.248-14.787,8.265-19.47l5.081-11.732a6.094,6.094,0,0,1,5.571-3.674Z" transform="translate(-424.755 -115.854)"/><path class="b" d="M42.937,170.033a5.235,5.235,0,0,1-1.611-1.406L25.664,142.162a7.188,7.188,0,0,0-6.187-3.528H6.278a5.4,5.4,0,0,1-5.152-3.778l22.051.079a6.091,6.091,0,0,1,5.577,3.69q1.931,4.5,3.941,9.049Q37.763,159.141,42.937,170.033Z" transform="translate(-0.919 -115.854)"/><g class="c" transform="translate(2.249 0.225)"><path class="d" d="M47.086,33.862H12.218a5.385,5.385,0,0,1,3.154-1.015H44.261A4.433,4.433,0,0,1,47.086,33.862Z" transform="translate(-12.218 -32.847)"/><g transform="translate(96.904)"><path class="d" d="M574.462,33.862H538.693a4.452,4.452,0,0,1,2.828-1.015h29.787A5.39,5.39,0,0,1,574.462,33.862Z" transform="translate(-538.693 -32.847)"/></g><path class="e" d="M44.261,32.847a4.433,4.433,0,0,1,2.826,1.015H12.218a5.385,5.385,0,0,1,3.154-1.015Z" transform="translate(-12.218 -32.847)"/><path class="e" d="M574.462,33.862H538.693a4.452,4.452,0,0,1,2.828-1.015h29.787A5.39,5.39,0,0,1,574.462,33.862Z" transform="translate(-441.789 -32.847)"/></g></g><path class="e" d="M335.552,32.6H314.224a4.834,4.834,0,0,1,3.221-1.328h14.736A5.034,5.034,0,0,1,335.552,32.6Z" transform="translate(-256.387 -25.518)"/><g transform="translate(2.166)"><rect class="e" width="10.184" height="1.107" transform="translate(12.398 4.871)"/><rect class="e" width="0.443" height="5.535" transform="translate(17.269 0.443)"/><rect class="e" width="34.981" height="0.443"/></g><g transform="translate(100.025)"><rect class="e" width="10.184" height="1.107" transform="translate(12.398 4.871)"/><rect class="e" width="0.443" height="5.535" transform="translate(17.269 0.443)"/><rect class="e" width="34.981" height="0.443"/></g></svg>