<svg xmlns="http://www.w3.org/2000/svg" width="17.563" height="17.642" viewBox="0 0 17.563 17.642"><defs><style>.a{fill:#056b33;}</style></defs><g transform="translate(-1.112 -1)"><path class="a" d="M9.145,21.64c-1.509,0-3.018.012-4.526,0a3.387,3.387,0,0,1-3.2-2.029,3.238,3.238,0,0,1-.307-1.45V9.126a3.42,3.42,0,0,1,2.7-3.394,3.97,3.97,0,0,1,.839-.082q3.227-.008,6.455,0A.76.76,0,0,1,11.3,7.158l-.053,0c-.072.006-.144,0-.217,0H4.588A1.9,1.9,0,0,0,2.672,8.684a2.49,2.49,0,0,0-.046.527v8.876a1.921,1.921,0,0,0,1.521,2,2.4,2.4,0,0,0,.527.046H13.61a1.942,1.942,0,0,0,2.059-1.817,1.858,1.858,0,0,0,0-.243V11.81a.746.746,0,0,1,.69-.8.754.754,0,0,1,.109,0,.736.736,0,0,1,.7.63,2.087,2.087,0,0,1,.018.274v6.16a3.47,3.47,0,0,1-3.369,3.569c-.051,0-.1,0-.153,0Q11.408,21.638,9.145,21.64Z" transform="translate(0 -3.005)"/><path class="a" d="M27.361,3.442a2.225,2.225,0,0,1-.638,1.336L20.6,11.471c-.522.571-1.039,1.147-1.571,1.709a1.6,1.6,0,0,1-.487.351q-1.252.569-2.52,1.106a1.04,1.04,0,0,1-1.483-.956,1.392,1.392,0,0,1,.076-.423c.284-.865.57-1.73.87-2.59a1.324,1.324,0,0,1,.268-.448q3.863-4.247,7.749-8.483a2.194,2.194,0,0,1,2.458-.58A2.314,2.314,0,0,1,27.361,3.442Zm-8.37,7.54c.043-.043.082-.078.117-.117l5.5-6.031c.351-.382.7-.763,1.045-1.15a.687.687,0,0,0,.1-.8A.653.653,0,0,0,25,2.545a.975.975,0,0,0-.417.268q-2.809,3.043-5.6,6.105l-1.026,1.125Zm-1,1.136-1.069-.964-.56,1.682Z" transform="translate(-8.692 0)"/></g></svg>