<svg xmlns="http://www.w3.org/2000/svg" width="35" height="34.985" viewBox="0 0 35 34.985"><defs><style>.a{fill:#1d1d1d;}</style></defs><g transform="translate(-390.285 -168.163)"><path class="a" d="M390.306,185.648v-.377a13.822,13.822,0,0,1,.189-2.159c.086-.542.171-1.087.308-1.618.166-.644.373-1.278.586-1.907a15.161,15.161,0,0,1,1.188-2.575,16.893,16.893,0,0,1,1.843-2.632,17.88,17.88,0,0,1,3.02-2.824,17.273,17.273,0,0,1,2.89-1.726,16.722,16.722,0,0,1,2.2-.853,15.133,15.133,0,0,1,2.269-.543c.54-.08,1.083-.133,1.624-.205a13.024,13.024,0,0,1,2.154-.043c.578.02,1.155.1,1.729.175.438.058.874.133,1.3.23.48.109.956.24,1.427.383.4.122.8.262,1.184.42.476.193.946.4,1.408.626a15.868,15.868,0,0,1,2.36,1.429c.165.119.329.239.491.363a.684.684,0,1,1-.81,1.1c-.563-.386-1.121-.782-1.7-1.144a11.637,11.637,0,0,0-2-1c-.548-.21-1.1-.421-1.661-.586-.53-.156-1.075-.265-1.617-.372a15.192,15.192,0,0,0-3.637-.252,13.224,13.224,0,0,0-2.089.241c-.449.092-.9.18-1.343.3-.413.109-.822.239-1.222.388q-.758.284-1.5.615a14.264,14.264,0,0,0-2,1.125,16.145,16.145,0,0,0-5.191,5.6,15.281,15.281,0,0,0-1.059,2.305c-.2.557-.351,1.131-.51,1.7a13.115,13.115,0,0,0-.382,2.134,14.322,14.322,0,0,0-.051,2.739c.046.531.1,1.062.178,1.588.058.4.148.792.244,1.182.1.419.213.839.355,1.247.194.558.4,1.113.64,1.654a14.593,14.593,0,0,0,1.206,2.174,16.2,16.2,0,0,0,2.641,3.059.446.446,0,0,0,.12.058c.015-.038.033-.076.045-.115.142-.471.262-.951.428-1.413a9.994,9.994,0,0,1,1.1-2.154,11,11,0,0,1,4.679-3.968,10.21,10.21,0,0,1,1.648-.582,10.9,10.9,0,0,1,3.84-.308,9.764,9.764,0,0,1,1.737.3,15.655,15.655,0,0,1,1.577.551,10.084,10.084,0,0,1,2.287,1.342,10.952,10.952,0,0,1,2.9,3.344,9.6,9.6,0,0,1,.852,1.972c.094.314.177.632.263.949.028.1.064.114.15.03.359-.351.728-.693,1.07-1.06a15.727,15.727,0,0,0,2.551-3.691,14.569,14.569,0,0,0,.918-2.254c.173-.566.311-1.143.438-1.721a14.366,14.366,0,0,0,.323-3.681c-.027-.656-.1-1.313-.184-1.965a12.175,12.175,0,0,0-.3-1.54c-.165-.617-.368-1.225-.581-1.827a14.523,14.523,0,0,0-1.219-2.516.684.684,0,0,1,.23-1.018.656.656,0,0,1,.841.17,8.12,8.12,0,0,1,.541.929c.3.617.6,1.236.859,1.871a12.761,12.761,0,0,1,.511,1.537c.177.659.326,1.327.452,2,.086.463.106.938.168,1.406a12.51,12.51,0,0,1,.049,2.1c-.023.6-.1,1.2-.175,1.795-.057.445-.135.89-.235,1.328-.107.472-.236.94-.381,1.4s-.315.915-.489,1.367A15.212,15.212,0,0,1,423,194.29a17.313,17.313,0,0,1-2.151,3,17.629,17.629,0,0,1-2.755,2.5,16.981,16.981,0,0,1-2.419,1.482,16.638,16.638,0,0,1-2.209.928,18.711,18.711,0,0,1-1.986.549,20.96,20.96,0,0,1-2.324.341,15.961,15.961,0,0,1-2.142.038c-.573-.019-1.145-.1-1.716-.171-.34-.041-.677-.1-1.012-.166s-.675-.153-1.009-.243c-.355-.1-.71-.193-1.057-.312-.388-.133-.769-.287-1.15-.439a15.483,15.483,0,0,1-2.335-1.179,18.064,18.064,0,0,1-2.851-2.159,17.589,17.589,0,0,1-2.091-2.324,17.163,17.163,0,0,1-1.718-2.8,15.758,15.758,0,0,1-.86-2.1c-.2-.613-.353-1.239-.505-1.864a13.761,13.761,0,0,1-.353-2.466q-.036-.629-.07-1.256Zm17.543,16.127a14.238,14.238,0,0,0,2.633-.226c.651-.115,1.294-.28,1.932-.452a10.308,10.308,0,0,0,1.3-.442,18.114,18.114,0,0,0,1.71-.8c.6-.328,1.163-.714,1.739-1.081a.2.2,0,0,0,.081-.156,8.753,8.753,0,0,0-.389-1.678,9.467,9.467,0,0,0-.739-1.655,9.285,9.285,0,0,0-1.76-2.251,9.593,9.593,0,0,0-2.62-1.752,8.082,8.082,0,0,0-1.617-.553c-.476-.1-.962-.175-1.446-.236a8.913,8.913,0,0,0-2.971.176,9.145,9.145,0,0,0-1.962.663,9.54,9.54,0,0,0-2.027,1.272,9.445,9.445,0,0,0-2.225,2.633,9.323,9.323,0,0,0-.77,1.726,8.3,8.3,0,0,0-.378,1.641.216.216,0,0,0,.08.167c.361.245.722.491,1.094.72a14.578,14.578,0,0,0,2.2,1.107,12.849,12.849,0,0,0,1.981.648c.477.107.951.232,1.432.313A15.666,15.666,0,0,0,407.849,201.775Z"/><path class="a" d="M407.784,175.413a6.148,6.148,0,1,1-6.141,6.152A6.153,6.153,0,0,1,407.784,175.413Zm-4.774,6.138a4.779,4.779,0,1,0,4.782-4.771A4.78,4.78,0,0,0,403.01,181.551Z"/><path class="a" d="M419.674,174.444a.683.683,0,1,1,.678.7A.685.685,0,0,1,419.674,174.444Z"/></g></svg>