<svg xmlns="http://www.w3.org/2000/svg" width="40" height="30" viewBox="0 0 40 30"><defs><style>.a{fill:#fff;opacity:0;}.b{fill:#d34646;}</style></defs><g transform="translate(-692 -279)"><rect class="a" width="40" height="30" transform="translate(692 279)"/><path class="b" d="M256,264a8,8,0,1,1,5.657-2.343A7.948,7.948,0,0,1,256,264Zm0-14.75a6.75,6.75,0,1,0,6.75,6.75A6.758,6.758,0,0,0,256,249.25Zm2.813,6.124h-5.626a.625.625,0,0,0-.625.625h0a.625.625,0,0,0,.625.625h5.626a.624.624,0,0,0,.624-.625h0A.624.624,0,0,0,258.813,255.374Z" transform="translate(456 38)"/></g></svg>