<svg xmlns="http://www.w3.org/2000/svg" width="35" height="35.001" viewBox="0 0 35 35.001"><defs><style>.a{fill:#1d1d1d;}</style></defs><g transform="translate(-238.499 -238.5)"><path class="a" d="M256,248.019a8.01,8.01,0,0,1,7.9,6.857.513.513,0,1,0,1.015-.143A9.113,9.113,0,0,0,256,246.994,9.016,9.016,0,0,0,246.993,256a9.007,9.007,0,0,0,17.946,1.1.513.513,0,0,0-1.018-.124,7.973,7.973,0,0,1-1.568,3.85,2.01,2.01,0,0,0-1.359-1.858l-2.16-.739a3.028,3.028,0,0,0,.412-1.526v-4.159a2.39,2.39,0,0,0-2.388-2.388H255.14a2.39,2.39,0,0,0-2.388,2.388v4.16a3.026,3.026,0,0,0,.412,1.525l-2.16.739a2.012,2.012,0,0,0-1.359,1.864A7.9,7.9,0,0,1,248.018,256,7.99,7.99,0,0,1,256,248.019Zm-2.222,8.686v-1.941h.584a2.268,2.268,0,0,0,1.753-.929,1.546,1.546,0,0,0,1.313.929h.794V256.7C258.221,259.383,253.777,259.383,253.777,256.7Zm0-4.16a1.365,1.365,0,0,1,1.363-1.363h1.719a1.364,1.364,0,0,1,1.362,1.363v1.194h-.794a.323.323,0,0,1-.279-.163l-.488-.849a.512.512,0,0,0-.817-.1l-.75.793a1.01,1.01,0,0,1-.732.316h-.584Zm-2.441,7.394,2.547-.871a3.61,3.61,0,0,0,4.232,0l2.547.871a.985.985,0,0,1,.667.933v1.068a8.086,8.086,0,0,1-10.66,0v-1.068A.985.985,0,0,1,251.336,259.939Z"/><path class="a" d="M273.115,253.224l-3.551-.917a13.954,13.954,0,0,0-1.362-3.287l1.863-3.159a.513.513,0,0,0-.079-.623l-3.225-3.224a.513.513,0,0,0-.623-.079L262.98,243.8a14.012,14.012,0,0,0-3.287-1.361l-.917-3.551a.513.513,0,0,0-.5-.385h-4.561a.515.515,0,0,0-.5.385l-.916,3.551a13.977,13.977,0,0,0-3.287,1.361l-3.159-1.862a.513.513,0,0,0-.623.079l-3.224,3.224a.513.513,0,0,0-.08.623l1.863,3.159a13.928,13.928,0,0,0-1.361,3.287l-3.551.917a.511.511,0,0,0-.385.5v4.561a.511.511,0,0,0,.385.5l3.55.917a13.972,13.972,0,0,0,1.362,3.287l-1.863,3.159a.514.514,0,0,0,.079.623l.871.87a.513.513,0,0,0,.725-.725l-.59-.59,1.815-3.076a.515.515,0,0,0,0-.525,12.962,12.962,0,0,1-1.478-3.568.513.513,0,0,0-.369-.373l-3.459-.892v-3.767l3.459-.892a.514.514,0,0,0,.369-.374,12.956,12.956,0,0,1,1.478-3.567.515.515,0,0,0,0-.525l-1.815-3.076,2.663-2.663,3.077,1.814a.51.51,0,0,0,.525,0,12.972,12.972,0,0,1,3.567-1.477.511.511,0,0,0,.373-.37l.893-3.458h3.766l.893,3.458a.511.511,0,0,0,.373.37,12.972,12.972,0,0,1,3.567,1.477.51.51,0,0,0,.525,0l3.077-1.814,2.663,2.663-1.814,3.076a.512.512,0,0,0,0,.525,12.956,12.956,0,0,1,1.478,3.567.515.515,0,0,0,.369.374l3.459.892v3.767l-3.459.892a.513.513,0,0,0-.369.374,12.969,12.969,0,0,1-1.478,3.567.512.512,0,0,0,0,.525l1.814,3.076-2.663,2.663-3.077-1.814a.512.512,0,0,0-.525,0,12.944,12.944,0,0,1-3.567,1.478.512.512,0,0,0-.373.369l-.893,3.459h-3.766l-.893-3.459a.512.512,0,0,0-.373-.369,12.944,12.944,0,0,1-3.567-1.478.512.512,0,0,0-.525,0l-3.077,1.814-.494-.493a.513.513,0,0,0-.725.725l.775.774a.513.513,0,0,0,.623.079l3.159-1.862a13.978,13.978,0,0,0,3.287,1.361l.916,3.551a.513.513,0,0,0,.5.385h4.562a.514.514,0,0,0,.5-.385l.916-3.551a13.978,13.978,0,0,0,3.287-1.361l3.159,1.862a.513.513,0,0,0,.623-.079l3.225-3.224a.514.514,0,0,0,.079-.623l-1.863-3.159a13.971,13.971,0,0,0,1.362-3.287l3.55-.917a.511.511,0,0,0,.385-.5V253.72a.512.512,0,0,0-.384-.5Z"/><path class="a" d="M254.829,244.908A11.154,11.154,0,1,0,267.153,256a11.283,11.283,0,0,0-9.984-11.092.513.513,0,1,0-.106,1.02,10.128,10.128,0,1,1-2.127,0,.513.513,0,0,0-.107-1.02Z"/></g></svg>