<svg xmlns="http://www.w3.org/2000/svg" width="35.815" height="24.684" viewBox="0 0 35.815 24.684">
  <g id="speedometer" transform="translate(0.001 -0.496)">
    <path id="Tracé_61" data-name="Tracé 61" d="M30.57,5.741A17.908,17.908,0,0,0,0,18.4,17.846,17.846,0,0,0,1.057,24.48a1.059,1.059,0,1,0,1.992-.718,15.637,15.637,0,0,1-.9-4.3H5.409a1.059,1.059,0,0,0,0-2.118H2.154a15.675,15.675,0,0,1,1.583-5.9l2.818,1.627a1.059,1.059,0,0,0,1.059-1.834L4.8,9.612A15.92,15.92,0,0,1,9.115,5.294L10.741,8.11a1.059,1.059,0,1,0,1.834-1.059L10.948,4.233a15.668,15.668,0,0,1,5.9-1.582V5.906a1.059,1.059,0,0,0,2.118,0V2.65a15.675,15.675,0,0,1,5.9,1.582L23.239,7.051A1.059,1.059,0,1,0,25.073,8.11L26.7,5.294a15.917,15.917,0,0,1,4.318,4.318L28.2,11.238a1.059,1.059,0,1,0,1.059,1.834l2.818-1.627a15.672,15.672,0,0,1,1.583,5.9H30.4a1.059,1.059,0,1,0,0,2.118H33.66a15.617,15.617,0,0,1-.815,4.071,1.059,1.059,0,1,0,2,.688A17.933,17.933,0,0,0,30.57,5.741Zm0,0" transform="translate(0 0)" fill="#058b46"/>
    <path id="Tracé_62" data-name="Tracé 62" d="M300.342,145.476l-3.052,3.289a5.128,5.128,0,0,1,1.444,1.557l3.161-3.406a1.059,1.059,0,0,0-1.552-1.441Zm0,0" transform="translate(-276.494 -134.524)" fill="#058b46"/>
    <path id="Tracé_63" data-name="Tracé 63" d="M215.865,213.973a2.975,2.975,0,1,0,2.975,2.975A2.978,2.978,0,0,0,215.865,213.973Zm0,0" transform="translate(-197.999 -198.544)" fill="#058b46"/>
  </g>
</svg>
