<svg xmlns="http://www.w3.org/2000/svg" width="38.453" height="38.453" viewBox="0 0 38.453 38.453"><defs><style>.a{fill:#fff;}</style></defs><g transform="translate(0)"><path class="a" d="M-123.773,145A19.248,19.248,0,0,0-143,164.227a19.248,19.248,0,0,0,19.227,19.227,19.248,19.248,0,0,0,19.227-19.227A19.248,19.248,0,0,0-123.773,145Zm0,36.781a17.574,17.574,0,0,1-17.555-17.555,17.574,17.574,0,0,1,17.555-17.555,17.574,17.574,0,0,1,17.555,17.555A17.574,17.574,0,0,1-123.773,181.781Z" transform="translate(143 -145)"/></g><g transform="translate(8.36 18.391)"><path class="a" d="M-121.263,168.913a10.88,10.88,0,0,0-10.867,10.868.836.836,0,0,0,.836.836.836.836,0,0,0,.835-.837,9.206,9.206,0,0,1,9.2-9.195,9.206,9.206,0,0,1,9.2,9.195.836.836,0,0,0,.835.836.836.836,0,0,0,.836-.836A10.879,10.879,0,0,0-121.263,168.913Z" transform="translate(132.13 -168.913)"/></g><g transform="translate(13.375 5.016)"><path class="a" d="M-119.757,151.522a5.858,5.858,0,0,0-5.852,5.851,5.858,5.858,0,0,0,5.852,5.852,5.858,5.858,0,0,0,5.852-5.852A5.858,5.858,0,0,0-119.757,151.522Zm0,10.031a4.185,4.185,0,0,1-4.18-4.18,4.185,4.185,0,0,1,4.18-4.179,4.185,4.185,0,0,1,4.18,4.179A4.185,4.185,0,0,1-119.757,161.553Z" transform="translate(125.609 -151.522)"/></g></svg>