<svg xmlns="http://www.w3.org/2000/svg" width="35" height="35" viewBox="0 0 35 35"><defs><style>.a{fill:#1d1d1d;}</style></defs><g transform="translate(-238.5 -238.5)"><path class="a" d="M256.465,272.333a.682.682,0,1,0,.2.483A.688.688,0,0,0,256.465,272.333Z"/><path class="a" d="M269.847,260.858l-2.28-.544v-.9a4.513,4.513,0,0,0,2.108-3.816v-2.547a4.509,4.509,0,0,0-7.887-2.989,6.027,6.027,0,0,0-5.781-4.349h0a6.026,6.026,0,0,0-5.784,4.361,4.509,4.509,0,0,0-7.9,2.977v2.547a4.511,4.511,0,0,0,2.109,3.816v.9l-2.281.544a4.743,4.743,0,0,0-3.653,4.629v4.6a.684.684,0,0,0,.684.684h5.466v2.05a.683.683,0,0,0,.683.684h7.5a.684.684,0,0,0,0-1.367h-3.052v-3.009a.684.684,0,0,0-1.367,0v3.009h-2.4v-3.084a4.977,4.977,0,0,1,3.829-4.855l3.362-.806,2.164,4.921a.682.682,0,0,0,.625.409h0a.684.684,0,0,0,.626-.408l2.161-4.915,3.352.8a4.976,4.976,0,0,1,3.833,4.856v.763a.687.687,0,0,0,0,.534v1.784h-2.383v-3.009a.684.684,0,0,0-1.367,0v3.009h-3.348a.684.684,0,0,0,0,1.367h7.782a.683.683,0,0,0,.683-.684v-2.05h5.48a.684.684,0,0,0,.684-.684v-4.6A4.743,4.743,0,0,0,269.847,260.858ZM265.163,249.9a3.149,3.149,0,0,1,3.145,3.145v.238h-1.955a8.449,8.449,0,0,1-4.208-1.123A3.153,3.153,0,0,1,265.163,249.9Zm-3.144,5.581c0-.07,0-1.838,0-1.838a9.811,9.811,0,0,0,4.33,1.007h1.955v.942a3.145,3.145,0,1,1-6.289,0v-.111Zm-10.661-3.759a4.649,4.649,0,0,1,9.3,0v.089l-2.538-1.49a.684.684,0,0,0-.87.15,5.16,5.16,0,0,1-3.966,1.851h-1.924Zm-7.666,1.492v-.169a3.145,3.145,0,0,1,6.163-.885,8.452,8.452,0,0,1-4.208,1.123h-1.955Zm0,2.378v-.942h1.955a9.816,9.816,0,0,0,4.334-1.009v1.951a3.145,3.145,0,1,1-6.289,0Zm.958,13.456v.349H242.6v-3.037a.684.684,0,0,0-1.368,0V269.4h-1.367v-3.911a3.381,3.381,0,0,1,2.6-3.3l2.167-.518,1.414,3.388A6.345,6.345,0,0,0,244.65,269.049Zm2.187-5.66L245.8,260.9c0-.016,0-.032,0-.049v-.869a4.492,4.492,0,0,0,2.067,0v.863c0,.022,0,.043,0,.065Zm2.691-.525a6.431,6.431,0,0,0-1.156.4l.666-1.594,2.167.519a3.416,3.416,0,0,1,.49.159Zm3.393-1.425a4.754,4.754,0,0,0-1.4-.582l-2.288-.548v-.9A4.545,4.545,0,0,0,250.648,258a6.052,6.052,0,0,0,2.273,2.43Zm4.783,1.015L256,266.336l-1.709-3.89v-1.409a6.029,6.029,0,0,0,3.416.006v1.411Zm-1.7-2.534a4.654,4.654,0,0,1-4.649-4.648V253.69h1.924a6.521,6.521,0,0,0,4.62-1.91l2.75,1.616v2.036A4.653,4.653,0,0,1,256.007,259.92Zm3.065.526h0a6.065,6.065,0,0,0,2.288-2.431,4.536,4.536,0,0,0,1.405,1.4v.9l-2.288.548a4.756,4.756,0,0,0-1.4.587v-1Zm3.382,2.42-2.162-.516a3.514,3.514,0,0,1,.5-.164l2.162-.518.669,1.6A6.432,6.432,0,0,0,262.454,262.866Zm1.674-1.943c0-.025,0-.05,0-.075v-.863a4.492,4.492,0,0,0,2.067,0v.869l0,.037-1.044,2.5Zm8.005,8.475h-1.367v-3.037a.684.684,0,0,0-1.368,0V269.4h-2.062v-.346a6.347,6.347,0,0,0-1.4-3.986l1.419-3.4,2.172.519a3.381,3.381,0,0,1,2.6,3.3Z"/><path class="a" d="M254.19,254.508a.682.682,0,1,0,.2.484A.688.688,0,0,0,254.19,254.508Z"/><path class="a" d="M258.762,254.508a.684.684,0,1,0,.2.484A.69.69,0,0,0,258.762,254.508Z"/><path class="a" d="M257.316,256.81a.684.684,0,0,0-.967,0,.519.519,0,0,1-.733,0,.683.683,0,1,0-.967.966,1.887,1.887,0,0,0,2.667,0A.683.683,0,0,0,257.316,256.81Z"/><path class="a" d="M266.765,242.191H266.3a.684.684,0,0,0,0,1.368h.469a.684.684,0,0,0,0-1.368Z"/><path class="a" d="M270.082,242.191h-.469a.684.684,0,0,0,0,1.368h.469a.684.684,0,0,0,0-1.368Z"/><path class="a" d="M268.189,243.615a.683.683,0,0,0-.683.684v.469a.683.683,0,0,0,1.367,0V244.3A.684.684,0,0,0,268.189,243.615Z"/><path class="a" d="M268.189,240.3a.683.683,0,0,0-.683.683v.469a.683.683,0,1,0,1.367,0v-.469A.683.683,0,0,0,268.189,240.3Z"/><path class="a" d="M242.349,242.191h-.469a.684.684,0,0,0,0,1.368h.469a.684.684,0,0,0,0-1.368Z"/><path class="a" d="M245.666,242.191H245.2a.684.684,0,1,0,0,1.368h.469a.684.684,0,0,0,0-1.368Z"/><path class="a" d="M243.773,243.615a.684.684,0,0,0-.684.684v.469a.683.683,0,0,0,1.367,0V244.3A.683.683,0,0,0,243.773,243.615Z"/><path class="a" d="M243.773,240.3a.683.683,0,0,0-.684.683v.469a.683.683,0,1,0,1.367,0v-.469A.683.683,0,0,0,243.773,240.3Z"/><path class="a" d="M256,241.1a.684.684,0,0,0-.684.683v1.8a.684.684,0,0,0,1.368,0v-1.8A.684.684,0,0,0,256,241.1Z"/><path class="a" d="M256.483,238.7a.682.682,0,1,0,.2.484A.688.688,0,0,0,256.483,238.7Z"/><path class="a" d="M253.6,241.243l-1-1a.684.684,0,0,0-.967.967l1,1a.683.683,0,0,0,.966-.966Z"/><path class="a" d="M260.363,240.205a.684.684,0,0,0-.967,0l-1.034,1.033a.684.684,0,0,0,.967.967l1.034-1.034A.683.683,0,0,0,260.363,240.205Z"/></g></svg>