<svg xmlns="http://www.w3.org/2000/svg" width="149.995" height="40.716" viewBox="0 0 149.995 40.716"><defs><style>.a{fill:#fff;}.b{fill:#f2f2f2;}.c{fill:#afafaf;}.d{opacity:0.65;}</style></defs><g transform="translate(2202.921 272.017)"><g transform="translate(-2110.095 -244.654)"><g transform="translate(0)"><path class="a" d="M0,.491H1.59L4.727,9.6,8,0l3.307,9.6L14.461.491h1.59l-4.8,12.863L8.017,3.78,4.795,13.353Z"/><path class="a" d="M234.049,18.375V5.994h6.529V7.339H235.52V10.89h5.057v1.37H235.52V17h5.057v1.37Z" transform="translate(-214.896 -5.503)"/><path class="a" d="M365.479,18.375V5.994h6.529V7.339h-5.057V10.89h5.057v1.37h-5.057v6.114Z" transform="translate(-335.571 -5.503)"/><path class="a" d="M493.913,18.375V5.994h1.472V16.971h4.677v1.4Z" transform="translate(-453.495 -5.503)"/><path class="a" d="M582.415,18.375V12.709L578.22,5.994h1.7l3.239,5.37,3.222-5.37h1.691l-4.186,6.715v5.666Z" transform="translate(-530.903 -5.503)"/></g></g><g transform="translate(-2202.921 -272.017)"><g transform="translate(0 3.986)"><g transform="translate(0 0)"><path class="b" d="M-2137.115-237.853l-5.547,11.348a2.085,2.085,0,0,1-3.91-.47l-2.242-10.231a3.24,3.24,0,0,0-3.188-2.546l-9.911.071a3.239,3.239,0,0,0-3.145,2.562l-2.21,10.331a2.085,2.085,0,0,1-3.888.528l-6.082-11.662a2.991,2.991,0,0,0-2.652-1.608h-19.4a3.628,3.628,0,0,0-3.629,3.628v7.83a3.628,3.628,0,0,0,3.629,3.628h8.864a4.829,4.829,0,0,1,4.156,2.37l10.518,17.775a2.6,2.6,0,0,0,2.237,1.276h8.352a2.6,2.6,0,0,0,2.457-1.751l4.52-13.088a1.5,1.5,0,0,1,2.816-.032l4.886,13.175a2.6,2.6,0,0,0,2.438,1.7h8.136a2.6,2.6,0,0,0,2.252-1.3l10.2-17.7a4.829,4.829,0,0,1,4.183-2.418h8.854a3.628,3.628,0,0,0,3.628-3.628v-7.83a3.628,3.628,0,0,0-3.628-3.628h-20.007A2.991,2.991,0,0,0-2137.115-237.853Z" transform="translate(2202.921 239.753)"/></g><path class="a" d="M-1876.365-239.756a3.236,3.236,0,0,1,2.269.9h-14.326a3.24,3.24,0,0,1,2.146-.832Z" transform="translate(1927.283 239.756)"/><path class="c" d="M-1652.668-136.007a3.616,3.616,0,0,1-3.46,2.524h-8.864a4.83,4.83,0,0,0-2.794.9,4.8,4.8,0,0,0-1.361,1.486l-10.519,17.778a2.61,2.61,0,0,1-.6.7q2.81-6.49,5.619-12.975c1.492-3.445,4.477-10.344,4.477-10.344Z" transform="translate(1744.849 148.827)"/><path class="c" d="M-2174.2-112.618a2.62,2.62,0,0,1-.6-.695l-10.519-17.774a4.882,4.882,0,0,0-1.277-1.431,4.828,4.828,0,0,0-2.878-.965h-8.864a3.616,3.616,0,0,1-3.46-2.524l17.5.069,3.7,8.55Q-2177.394-120-2174.2-112.618Z" transform="translate(2201.933 148.827)"/><g class="d" transform="translate(1.51 0.223)"><path class="a" d="M-2169.177-237.953a2.978,2.978,0,0,1,1.9.681H-2190.7a3.615,3.615,0,0,1,2.118-.681Z" transform="translate(2190.697 237.953)"/><path class="a" d="M-1639.974-237.272H-1664a2.989,2.989,0,0,1,1.9-.681h20.005A3.62,3.62,0,0,1-1639.974-237.272Z" transform="translate(1729.079 237.953)"/></g></g><g transform="translate(67.178 0)"><rect class="a" width="6.84" height="0.743" transform="translate(8.327 3.42)"/><rect class="a" width="0.297" height="3.717" transform="translate(11.598 0.446)"/><rect class="a" width="23.494" height="0.446"/></g><g transform="translate(1.473 0)"><rect class="a" width="6.84" height="0.743" transform="translate(8.327 3.42)"/><rect class="a" width="0.297" height="3.717" transform="translate(11.598 0.446)"/><rect class="a" width="23.494" height="0.446"/></g></g></g></svg>